<svg width="113" height="48" viewBox="0 0 113 48" fill="none" xmlns="http://www.w3.org/2000/svg">
<rect x="1.5" y="1.5" width="110" height="45" rx="10.5" fill="#E6F2FF"/>
<rect x="1.5" y="1.5" width="110" height="45" rx="10.5" stroke="#B0D6FF" stroke-width="3" stroke-dasharray="5 5"/>
<path d="M21 29H23V25H27V23H23V19H21V23H17V25H21V29ZM22 34C20.6167 34 19.3167 33.7417 18.1 33.225C16.8833 32.6917 15.825 31.975 14.925 31.075C14.025 30.175 13.3083 29.1167 12.775 27.9C12.2583 26.6833 12 25.3833 12 24C12 22.6167 12.2583 21.3167 12.775 20.1C13.3083 18.8833 14.025 17.825 14.925 16.925C15.825 16.025 16.8833 15.3167 18.1 14.8C19.3167 14.2667 20.6167 14 22 14C23.3833 14 24.6833 14.2667 25.9 14.8C27.1167 15.3167 28.175 16.025 29.075 16.925C29.975 17.825 30.6833 18.8833 31.2 20.1C31.7333 21.3167 32 22.6167 32 24C32 25.3833 31.7333 26.6833 31.2 27.9C30.6833 29.1167 29.975 30.175 29.075 31.075C28.175 31.975 27.1167 32.6917 25.9 33.225C24.6833 33.7417 23.3833 34 22 34ZM22 32C24.2333 32 26.125 31.225 27.675 29.675C29.225 28.125 30 26.2333 30 24C30 21.7667 29.225 19.875 27.675 18.325C26.125 16.775 24.2333 16 22 16C19.7667 16 17.875 16.775 16.325 18.325C14.775 19.875 14 21.7667 14 24C14 26.2333 14.775 28.125 16.325 29.675C17.875 31.225 19.7667 32 22 32Z" fill="#8AC2FF"/>
<path d="M43.6506 29.5H42.358L46.0966 19.3182H47.3693L51.108 29.5H49.8153L46.7727 20.929H46.6932L43.6506 29.5ZM44.1278 25.5227H49.3381V26.6165H44.1278V25.5227ZM55.4183 29.6591C54.782 29.6591 54.2202 29.4983 53.733 29.1768C53.2457 28.852 52.8646 28.3946 52.5895 27.8047C52.3144 27.2114 52.1768 26.5104 52.1768 25.7017C52.1768 24.8996 52.3144 24.2036 52.5895 23.6136C52.8646 23.0237 53.2474 22.5679 53.7379 22.2464C54.2285 21.925 54.7952 21.7642 55.4382 21.7642C55.9354 21.7642 56.3281 21.8471 56.6165 22.0128C56.9081 22.1752 57.1302 22.3608 57.2827 22.5696C57.4384 22.7751 57.5594 22.9441 57.6456 23.0767H57.745V19.3182H58.9183V29.5H57.7848V28.3267H57.6456C57.5594 28.4659 57.4368 28.6416 57.2777 28.8537C57.1186 29.0625 56.8916 29.2498 56.5966 29.4155C56.3016 29.5779 55.9089 29.6591 55.4183 29.6591ZM55.5774 28.6051C56.0481 28.6051 56.4458 28.4825 56.7706 28.2372C57.0954 27.9886 57.3423 27.6456 57.5114 27.2081C57.6804 26.7673 57.7649 26.2585 57.7649 25.6818C57.7649 25.1117 57.6821 24.6129 57.5163 24.1854C57.3506 23.7545 57.1054 23.4197 56.7805 23.1811C56.4557 22.9392 56.0547 22.8182 55.5774 22.8182C55.0803 22.8182 54.666 22.9458 54.3345 23.201C54.0064 23.4529 53.7595 23.7959 53.5938 24.2301C53.4313 24.661 53.3501 25.1449 53.3501 25.6818C53.3501 26.2254 53.433 26.7192 53.5987 27.1634C53.7678 27.6042 54.0163 27.9555 54.3445 28.2173C54.6759 28.4759 55.0869 28.6051 55.5774 28.6051ZM64.1136 29.6591C63.4773 29.6591 62.9155 29.4983 62.4283 29.1768C61.9411 28.852 61.5599 28.3946 61.2848 27.8047C61.0097 27.2114 60.8722 26.5104 60.8722 25.7017C60.8722 24.8996 61.0097 24.2036 61.2848 23.6136C61.5599 23.0237 61.9427 22.5679 62.4332 22.2464C62.9238 21.925 63.4905 21.7642 64.1335 21.7642C64.6307 21.7642 65.0234 21.8471 65.3118 22.0128C65.6035 22.1752 65.8255 22.3608 65.978 22.5696C66.1338 22.7751 66.2547 22.9441 66.3409 23.0767H66.4403V19.3182H67.6136V29.5H66.4801V28.3267H66.3409C66.2547 28.4659 66.1321 28.6416 65.973 28.8537C65.8139 29.0625 65.5869 29.2498 65.2919 29.4155C64.9969 29.5779 64.6042 29.6591 64.1136 29.6591ZM64.2727 28.6051C64.7434 28.6051 65.1411 28.4825 65.4659 28.2372C65.7907 27.9886 66.0376 27.6456 66.2067 27.2081C66.3757 26.7673 66.4602 26.2585 66.4602 25.6818C66.4602 25.1117 66.3774 24.6129 66.2116 24.1854C66.0459 23.7545 65.8007 23.4197 65.4759 23.1811C65.151 22.9392 64.75 22.8182 64.2727 22.8182C63.7756 22.8182 63.3613 22.9458 63.0298 23.201C62.7017 23.4529 62.4548 23.7959 62.2891 24.2301C62.1267 24.661 62.0455 25.1449 62.0455 25.6818C62.0455 26.2254 62.1283 26.7192 62.294 27.1634C62.4631 27.6042 62.7116 27.9555 63.0398 28.2173C63.3712 28.4759 63.7822 28.6051 64.2727 28.6051ZM82.0959 19.3182V29.5H80.9027L75.3544 21.5057H75.255V29.5H74.022V19.3182H75.2152L80.7834 27.3324H80.8828V19.3182H82.0959ZM87.6056 29.6591C86.8699 29.6591 86.2351 29.4967 85.7015 29.1719C85.1712 28.8438 84.7619 28.3864 84.4735 27.7997C84.1885 27.2098 84.046 26.5237 84.046 25.7415C84.046 24.9593 84.1885 24.2699 84.4735 23.6733C84.7619 23.0734 85.1629 22.6061 85.6767 22.2713C86.1937 21.9332 86.7969 21.7642 87.4863 21.7642C87.8841 21.7642 88.2768 21.8305 88.6646 21.9631C89.0524 22.0956 89.4054 22.3111 89.7235 22.6094C90.0417 22.9044 90.2953 23.2955 90.4842 23.7827C90.6731 24.2699 90.7676 24.8698 90.7676 25.5824V26.0795H84.8812V25.0653H89.5744C89.5744 24.6345 89.4882 24.25 89.3159 23.9119C89.1468 23.5739 88.9049 23.3071 88.59 23.1115C88.2785 22.916 87.9106 22.8182 87.4863 22.8182C87.019 22.8182 86.6146 22.9342 86.2733 23.1662C85.9352 23.3949 85.675 23.6932 85.4927 24.0611C85.3104 24.429 85.2193 24.8234 85.2193 25.2443V25.9205C85.2193 26.4972 85.3187 26.986 85.5176 27.3871C85.7198 27.7848 85.9998 28.0881 86.3578 28.2969C86.7157 28.5024 87.1317 28.6051 87.6056 28.6051C87.9139 28.6051 88.1923 28.562 88.4409 28.4759C88.6928 28.3864 88.9099 28.2538 89.0922 28.0781C89.2744 27.8991 89.4153 27.6771 89.5147 27.4119L90.6483 27.7301C90.5289 28.1146 90.3284 28.4527 90.0467 28.7443C89.765 29.0327 89.417 29.258 89.0027 29.4205C88.5884 29.5795 88.1227 29.6591 87.6056 29.6591ZM94.2825 29.5L91.9558 21.8636H93.1887L94.8393 27.7102H94.9189L96.5495 21.8636H97.8024L99.4132 27.6903H99.4927L101.143 21.8636H102.376L100.05 29.5H98.8961L97.2257 23.6335H97.1064L95.4359 29.5H94.2825Z" fill="#8AC2FF"/>
</svg>
