<svg width="105" height="38" viewBox="0 0 105 38" fill="none" xmlns="http://www.w3.org/2000/svg">
<rect x="0.5" y="0.5" width="104" height="37" rx="18.5" fill="#ECFAF2"/>
<rect x="0.5" y="0.5" width="104" height="37" rx="18.5" stroke="#80DBAA"/>
<path fill-rule="evenodd" clip-rule="evenodd" d="M24.937 13.4695C25.1955 13.6419 25.2654 13.9911 25.093 14.2496L18.343 24.3746C18.2495 24.5148 18.0981 24.6057 17.9304 24.6223C17.7627 24.6389 17.5964 24.5795 17.4773 24.4603L12.9773 19.9603C12.7576 19.7406 12.7576 19.3845 12.9773 19.1648C13.1969 18.9451 13.5531 18.9451 13.7727 19.1648L17.7876 23.1796L24.157 13.6255C24.3293 13.3671 24.6785 13.2972 24.937 13.4695Z" fill="#41C980" stroke="#41C980" stroke-width="0.5" stroke-linecap="round" stroke-linejoin="round"/>
<path d="M39.9815 23H38.294L41.3665 14.2727H43.3182L46.3949 23H44.7074L42.3764 16.0625H42.3082L39.9815 23ZM40.0369 19.5781H44.6392V20.848H40.0369V19.5781ZM47.4762 25.4545V16.4545H48.9933V17.5369H49.0827C49.1623 17.3778 49.2745 17.2088 49.4194 17.0298C49.5643 16.848 49.7603 16.6932 50.0075 16.5653C50.2546 16.4347 50.57 16.3693 50.9535 16.3693C51.4592 16.3693 51.9151 16.4986 52.3214 16.7571C52.7305 17.0128 53.0543 17.392 53.293 17.8949C53.5344 18.3949 53.6552 19.0085 53.6552 19.7358C53.6552 20.4545 53.5373 21.0653 53.3015 21.5682C53.0657 22.071 52.7447 22.4545 52.3384 22.7188C51.9322 22.983 51.4719 23.1151 50.9577 23.1151C50.5827 23.1151 50.2717 23.0526 50.0245 22.9276C49.7773 22.8026 49.5785 22.652 49.4279 22.4759C49.2802 22.2969 49.1651 22.1278 49.0827 21.9688H49.0188V25.4545H47.4762ZM48.989 19.7273C48.989 20.1506 49.0487 20.5213 49.168 20.8395C49.2901 21.1577 49.4648 21.4062 49.6921 21.5852C49.9222 21.7614 50.2006 21.8494 50.5273 21.8494C50.8683 21.8494 51.1538 21.7585 51.3839 21.5767C51.614 21.392 51.7873 21.1406 51.9038 20.8224C52.0231 20.5014 52.0827 20.1364 52.0827 19.7273C52.0827 19.321 52.0245 18.9602 51.908 18.6449C51.7915 18.3295 51.6183 18.0824 51.3881 17.9034C51.158 17.7244 50.8711 17.6349 50.5273 17.6349C50.1978 17.6349 49.918 17.7216 49.6879 17.8949C49.4577 18.0682 49.283 18.3111 49.1637 18.6236C49.0472 18.9361 48.989 19.304 48.989 19.7273ZM54.9762 25.4545V16.4545H56.4933V17.5369H56.5827C56.6623 17.3778 56.7745 17.2088 56.9194 17.0298C57.0643 16.848 57.2603 16.6932 57.5075 16.5653C57.7546 16.4347 58.07 16.3693 58.4535 16.3693C58.9592 16.3693 59.4151 16.4986 59.8214 16.7571C60.2305 17.0128 60.5543 17.392 60.793 17.8949C61.0344 18.3949 61.1552 19.0085 61.1552 19.7358C61.1552 20.4545 61.0373 21.0653 60.8015 21.5682C60.5657 22.071 60.2447 22.4545 59.8384 22.7188C59.4322 22.983 58.9719 23.1151 58.4577 23.1151C58.0827 23.1151 57.7717 23.0526 57.5245 22.9276C57.2773 22.8026 57.0785 22.652 56.9279 22.4759C56.7802 22.2969 56.6651 22.1278 56.5827 21.9688H56.5188V25.4545H54.9762ZM56.489 19.7273C56.489 20.1506 56.5487 20.5213 56.668 20.8395C56.7901 21.1577 56.9648 21.4062 57.1921 21.5852C57.4222 21.7614 57.7006 21.8494 58.0273 21.8494C58.3683 21.8494 58.6538 21.7585 58.8839 21.5767C59.114 21.392 59.2873 21.1406 59.4038 20.8224C59.5231 20.5014 59.5827 20.1364 59.5827 19.7273C59.5827 19.321 59.5245 18.9602 59.408 18.6449C59.2915 18.3295 59.1183 18.0824 58.8881 17.9034C58.658 17.7244 58.3711 17.6349 58.0273 17.6349C57.6978 17.6349 57.418 17.7216 57.1879 17.8949C56.9577 18.0682 56.783 18.3111 56.6637 18.6236C56.5472 18.9361 56.489 19.304 56.489 19.7273ZM62.4762 23V16.4545H63.9719V17.5455H64.0401C64.1594 17.1676 64.364 16.8764 64.6538 16.6719C64.9464 16.4645 65.2802 16.3608 65.6552 16.3608C65.7404 16.3608 65.8356 16.3651 65.9407 16.3736C66.0487 16.3793 66.1381 16.3892 66.2092 16.4034V17.8224C66.1438 17.7997 66.0401 17.7798 65.8981 17.7628C65.7589 17.7429 65.6239 17.733 65.4933 17.733C65.212 17.733 64.9592 17.794 64.7347 17.9162C64.5131 18.0355 64.3384 18.2017 64.2106 18.4148C64.0827 18.6278 64.0188 18.8736 64.0188 19.152V23H62.4762ZM69.8196 23.1278C69.1804 23.1278 68.6264 22.9872 68.1577 22.706C67.6889 22.4247 67.3253 22.0312 67.0668 21.5256C66.8111 21.0199 66.6832 20.429 66.6832 19.7528C66.6832 19.0767 66.8111 18.4844 67.0668 17.9759C67.3253 17.4673 67.6889 17.0724 68.1577 16.7912C68.6264 16.5099 69.1804 16.3693 69.8196 16.3693C70.4588 16.3693 71.0128 16.5099 71.4815 16.7912C71.9503 17.0724 72.3125 17.4673 72.5682 17.9759C72.8267 18.4844 72.956 19.0767 72.956 19.7528C72.956 20.429 72.8267 21.0199 72.5682 21.5256C72.3125 22.0312 71.9503 22.4247 71.4815 22.706C71.0128 22.9872 70.4588 23.1278 69.8196 23.1278ZM69.8281 21.892C70.1747 21.892 70.4645 21.7969 70.6974 21.6065C70.9304 21.4134 71.1037 21.1548 71.2173 20.831C71.3338 20.5071 71.392 20.1463 71.392 19.7486C71.392 19.348 71.3338 18.9858 71.2173 18.6619C71.1037 18.3352 70.9304 18.0753 70.6974 17.8821C70.4645 17.6889 70.1747 17.5923 69.8281 17.5923C69.473 17.5923 69.1776 17.6889 68.9418 17.8821C68.7088 18.0753 68.5341 18.3352 68.4176 18.6619C68.304 18.9858 68.2472 19.348 68.2472 19.7486C68.2472 20.1463 68.304 20.5071 68.4176 20.831C68.5341 21.1548 68.7088 21.4134 68.9418 21.6065C69.1776 21.7969 69.473 21.892 69.8281 21.892ZM79.8892 16.4545L77.5582 23H75.8537L73.5227 16.4545H75.1676L76.6719 21.3168H76.7401L78.2486 16.4545H79.8892ZM83.6317 23.1278C82.9755 23.1278 82.4087 22.9915 81.9315 22.7188C81.457 22.4432 81.092 22.054 80.8363 21.5511C80.5806 21.0455 80.4528 20.4503 80.4528 19.7656C80.4528 19.0923 80.5806 18.5014 80.8363 17.9929C81.0948 17.4815 81.4556 17.0838 81.9187 16.7997C82.3817 16.5128 82.9258 16.3693 83.5508 16.3693C83.9542 16.3693 84.3349 16.4347 84.6928 16.5653C85.0536 16.6932 85.3718 16.892 85.6474 17.1619C85.9258 17.4318 86.1445 17.7756 86.3036 18.1932C86.4627 18.608 86.5423 19.1023 86.5423 19.6761V20.1491H81.1772V19.1094H85.0636C85.0607 18.8139 84.9968 18.5511 84.8718 18.321C84.7468 18.0881 84.5721 17.9048 84.3477 17.7713C84.1261 17.6378 83.8675 17.571 83.5721 17.571C83.2567 17.571 82.9798 17.6477 82.7411 17.8011C82.5025 17.9517 82.3164 18.1506 82.1829 18.3977C82.0522 18.642 81.9854 18.9105 81.9826 19.2031V20.1108C81.9826 20.4915 82.0522 20.8182 82.1914 21.0909C82.3306 21.3608 82.5252 21.5682 82.7752 21.7131C83.0252 21.8551 83.3178 21.9261 83.6531 21.9261C83.8775 21.9261 84.0806 21.8949 84.2624 21.8324C84.4442 21.767 84.6019 21.6719 84.7354 21.5469C84.869 21.4219 84.9698 21.267 85.038 21.0824L86.4783 21.2443C86.3874 21.625 86.2141 21.9574 85.9585 22.2415C85.7056 22.5227 85.3817 22.7415 84.9869 22.8977C84.592 23.0511 84.1403 23.1278 83.6317 23.1278ZM90.2763 23.1151C89.7621 23.1151 89.3018 22.983 88.8956 22.7188C88.4893 22.4545 88.1683 22.071 87.9325 21.5682C87.6967 21.0653 87.5788 20.4545 87.5788 19.7358C87.5788 19.0085 87.6982 18.3949 87.9368 17.8949C88.1783 17.392 88.5036 17.0128 88.9126 16.7571C89.3217 16.4986 89.7777 16.3693 90.2805 16.3693C90.6641 16.3693 90.9794 16.4347 91.2266 16.5653C91.4737 16.6932 91.6697 16.848 91.8146 17.0298C91.9595 17.2088 92.0717 17.3778 92.1513 17.5369H92.2152V14.2727H93.7621V23H92.245V21.9688H92.1513C92.0717 22.1278 91.9567 22.2969 91.8061 22.4759C91.6555 22.652 91.4567 22.8026 91.2095 22.9276C90.9624 23.0526 90.6513 23.1151 90.2763 23.1151ZM90.7067 21.8494C91.0334 21.8494 91.3118 21.7614 91.5419 21.5852C91.772 21.4062 91.9467 21.1577 92.0661 20.8395C92.1854 20.5213 92.245 20.1506 92.245 19.7273C92.245 19.304 92.1854 18.9361 92.0661 18.6236C91.9496 18.3111 91.7763 18.0682 91.5462 17.8949C91.3189 17.7216 91.0391 17.6349 90.7067 17.6349C90.3629 17.6349 90.076 17.7244 89.8459 17.9034C89.6158 18.0824 89.4425 18.3295 89.326 18.6449C89.2095 18.9602 89.1513 19.321 89.1513 19.7273C89.1513 20.1364 89.2095 20.5014 89.326 20.8224C89.4453 21.1406 89.62 21.392 89.8501 21.5767C90.0831 21.7585 90.3686 21.8494 90.7067 21.8494Z" fill="#41C980"/>
</svg>
