<svg width="16" height="17" viewBox="0 0 16 17" fill="none" xmlns="http://www.w3.org/2000/svg">
<path fill-rule="evenodd" clip-rule="evenodd" d="M2.40039 8.50005C2.40039 8.16868 2.66902 7.90005 3.00039 7.90005L11.5107 7.90005L8.18453 4.73255C7.94566 4.50287 7.93821 4.12305 8.16789 3.88418C8.39757 3.64532 8.77739 3.63787 9.01626 3.86755L13.4163 8.06755C13.5339 8.18067 13.6004 8.33684 13.6004 8.50005C13.6004 8.66326 13.5339 8.81943 13.4163 8.93255L9.01626 13.1325C8.77739 13.3622 8.39757 13.3548 8.16789 13.1159C7.93822 12.8771 7.94566 12.4972 8.18453 12.2675L11.5107 9.10005L3.00039 9.10005C2.66902 9.10005 2.40039 8.83142 2.40039 8.50005Z" fill="#96A0B6" stroke="#96A0B6" stroke-width="0.5" stroke-linecap="round" stroke-linejoin="round"/>
</svg>
