<svg width="20" height="20" viewBox="0 0 20 20" fill="none" xmlns="http://www.w3.org/2000/svg">
<path fill-rule="evenodd" clip-rule="evenodd" d="M5.75 2C6.16421 2 6.5 2.33579 6.5 2.75V4H13.5V2.75C13.5 2.33579 13.8358 2 14.25 2C14.6642 2 15 2.33579 15 2.75V4H15.25C16.7688 4 18 5.23122 18 6.75V15.25C18 16.7688 16.7688 18 15.25 18H4.75C3.23122 18 2 16.7688 2 15.25V6.75C2 5.23122 3.23122 4 4.75 4H5V2.75C5 2.33579 5.33579 2 5.75 2ZM4.75 7.5C4.05964 7.5 3.5 8.05964 3.5 8.75V15.25C3.5 15.9404 4.05964 16.5 4.75 16.5H15.25C15.9404 16.5 16.5 15.9404 16.5 15.25V8.75C16.5 8.05964 15.9404 7.5 15.25 7.5H4.75Z" fill="#40444C"/>
<path d="M6.5 4H6.25C6.25 4.13807 6.36193 4.25 6.5 4.25V4ZM13.5 4V4.25C13.6381 4.25 13.75 4.13807 13.75 4H13.5ZM15 4H14.75C14.75 4.13807 14.8619 4.25 15 4.25V4ZM5 4V4.25C5.13807 4.25 5.25 4.13807 5.25 4H5ZM6.75 2.75C6.75 2.19772 6.30228 1.75 5.75 1.75V2.25C6.02614 2.25 6.25 2.47386 6.25 2.75H6.75ZM6.75 4V2.75H6.25V4H6.75ZM13.5 3.75H6.5V4.25H13.5V3.75ZM13.25 2.75V4H13.75V2.75H13.25ZM14.25 1.75C13.6977 1.75 13.25 2.19772 13.25 2.75H13.75C13.75 2.47386 13.9739 2.25 14.25 2.25V1.75ZM15.25 2.75C15.25 2.19772 14.8023 1.75 14.25 1.75V2.25C14.5261 2.25 14.75 2.47386 14.75 2.75H15.25ZM15.25 4V2.75H14.75V4H15.25ZM15.25 3.75H15V4.25H15.25V3.75ZM18.25 6.75C18.25 5.09315 16.9069 3.75 15.25 3.75V4.25C16.6307 4.25 17.75 5.36929 17.75 6.75H18.25ZM18.25 15.25V6.75H17.75V15.25H18.25ZM15.25 18.25C16.9069 18.25 18.25 16.9069 18.25 15.25H17.75C17.75 16.6307 16.6307 17.75 15.25 17.75V18.25ZM4.75 18.25H15.25V17.75H4.75V18.25ZM1.75 15.25C1.75 16.9069 3.09315 18.25 4.75 18.25V17.75C3.36929 17.75 2.25 16.6307 2.25 15.25H1.75ZM1.75 6.75V15.25H2.25V6.75H1.75ZM4.75 3.75C3.09315 3.75 1.75 5.09315 1.75 6.75H2.25C2.25 5.36929 3.36929 4.25 4.75 4.25V3.75ZM5 3.75H4.75V4.25H5V3.75ZM4.75 2.75V4H5.25V2.75H4.75ZM5.75 1.75C5.19772 1.75 4.75 2.19772 4.75 2.75H5.25C5.25 2.47386 5.47386 2.25 5.75 2.25V1.75ZM3.75 8.75C3.75 8.19772 4.19772 7.75 4.75 7.75V7.25C3.92157 7.25 3.25 7.92157 3.25 8.75H3.75ZM3.75 15.25V8.75H3.25V15.25H3.75ZM4.75 16.25C4.19772 16.25 3.75 15.8023 3.75 15.25H3.25C3.25 16.0784 3.92157 16.75 4.75 16.75V16.25ZM15.25 16.25H4.75V16.75H15.25V16.25ZM16.25 15.25C16.25 15.8023 15.8023 16.25 15.25 16.25V16.75C16.0784 16.75 16.75 16.0784 16.75 15.25H16.25ZM16.25 8.75V15.25H16.75V8.75H16.25ZM15.25 7.75C15.8023 7.75 16.25 8.19772 16.25 8.75H16.75C16.75 7.92157 16.0784 7.25 15.25 7.25V7.75ZM4.75 7.75H15.25V7.25H4.75V7.75Z" fill="#40444C"/>
</svg>
