<svg width="141" height="80" viewBox="0 0 141 80" fill="none" xmlns="http://www.w3.org/2000/svg">
<circle cx="17.5" cy="40" r="5.5" fill="#41C980" stroke="#C4EED8" stroke-width="4"/>
<path d="M40.2074 38.1108H38.8778C38.8267 37.8267 38.7315 37.5767 38.5923 37.3608C38.4531 37.1449 38.2827 36.9616 38.081 36.8111C37.8793 36.6605 37.6534 36.5469 37.4034 36.4702C37.1563 36.3935 36.8935 36.3551 36.6151 36.3551C36.1122 36.3551 35.6619 36.4815 35.2642 36.7344C34.8693 36.9872 34.5568 37.358 34.3267 37.8466C34.0994 38.3352 33.9858 38.9318 33.9858 39.6364C33.9858 40.3466 34.0994 40.946 34.3267 41.4347C34.5568 41.9233 34.8707 42.2926 35.2685 42.5426C35.6662 42.7926 36.1136 42.9176 36.6108 42.9176C36.8864 42.9176 37.1477 42.8807 37.3949 42.8068C37.6449 42.7301 37.8707 42.6179 38.0724 42.4702C38.2741 42.3224 38.4446 42.142 38.5838 41.929C38.7259 41.7131 38.8239 41.4659 38.8778 41.1875L40.2074 41.1918C40.1364 41.6207 39.9986 42.0156 39.794 42.3764C39.5923 42.7344 39.3324 43.044 39.0142 43.3054C38.6989 43.5639 38.3381 43.7642 37.9318 43.9062C37.5256 44.0483 37.0824 44.1193 36.6023 44.1193C35.8466 44.1193 35.1733 43.9403 34.5824 43.5824C33.9915 43.2216 33.5256 42.706 33.1847 42.0355C32.8466 41.3651 32.6776 40.5653 32.6776 39.6364C32.6776 38.7045 32.848 37.9048 33.1889 37.2372C33.5298 36.5668 33.9957 36.0526 34.5866 35.6946C35.1776 35.3338 35.8494 35.1534 36.6023 35.1534C37.0653 35.1534 37.4972 35.2202 37.8977 35.3537C38.3011 35.4844 38.6634 35.6776 38.9844 35.9332C39.3054 36.1861 39.571 36.4957 39.7812 36.8622C39.9915 37.2259 40.1335 37.642 40.2074 38.1108ZM44.4379 44.1321C43.8242 44.1321 43.2887 43.9915 42.8313 43.7102C42.3739 43.429 42.0188 43.0355 41.766 42.5298C41.5131 42.0241 41.3867 41.4332 41.3867 40.7571C41.3867 40.0781 41.5131 39.4844 41.766 38.9759C42.0188 38.4673 42.3739 38.0724 42.8313 37.7912C43.2887 37.5099 43.8242 37.3693 44.4379 37.3693C45.0515 37.3693 45.587 37.5099 46.0444 37.7912C46.5018 38.0724 46.8569 38.4673 47.1097 38.9759C47.3626 39.4844 47.489 40.0781 47.489 40.7571C47.489 41.4332 47.3626 42.0241 47.1097 42.5298C46.8569 43.0355 46.5018 43.429 46.0444 43.7102C45.587 43.9915 45.0515 44.1321 44.4379 44.1321ZM44.4421 43.0625C44.8398 43.0625 45.1694 42.9574 45.4308 42.7472C45.6921 42.5369 45.8853 42.2571 46.0103 41.9077C46.1381 41.5582 46.2021 41.1733 46.2021 40.7528C46.2021 40.3352 46.1381 39.9517 46.0103 39.6023C45.8853 39.25 45.6921 38.9673 45.4308 38.7543C45.1694 38.5412 44.8398 38.4347 44.4421 38.4347C44.0415 38.4347 43.7092 38.5412 43.445 38.7543C43.1836 38.9673 42.989 39.25 42.8612 39.6023C42.7362 39.9517 42.6737 40.3352 42.6737 40.7528C42.6737 41.1733 42.7362 41.5582 42.8612 41.9077C42.989 42.2571 43.1836 42.5369 43.445 42.7472C43.7092 42.9574 44.0415 43.0625 44.4421 43.0625ZM48.9112 44V37.4545H50.1342V38.5199H50.2152C50.3516 38.1591 50.5746 37.8778 50.8842 37.6761C51.1939 37.4716 51.5646 37.3693 51.9964 37.3693C52.4339 37.3693 52.8004 37.4716 53.0959 37.6761C53.3942 37.8807 53.6143 38.1619 53.7564 38.5199H53.8246C53.9808 38.1705 54.2294 37.892 54.5703 37.6847C54.9112 37.4744 55.3175 37.3693 55.7891 37.3693C56.3828 37.3693 56.8672 37.5554 57.2422 37.9276C57.62 38.2997 57.8089 38.8608 57.8089 39.6108V44H56.5348V39.7301C56.5348 39.2869 56.4141 38.9659 56.1726 38.767C55.9311 38.5682 55.6428 38.4688 55.3075 38.4688C54.8928 38.4688 54.5703 38.5966 54.3402 38.8523C54.1101 39.1051 53.995 39.4304 53.995 39.8281V44H52.7251V39.6491C52.7251 39.294 52.6143 39.0085 52.3928 38.7926C52.1712 38.5767 51.8828 38.4688 51.5277 38.4688C51.2862 38.4688 51.0632 38.5327 50.8587 38.6605C50.657 38.7855 50.4936 38.9602 50.3686 39.1847C50.2464 39.4091 50.1854 39.669 50.1854 39.9645V44H48.9112ZM59.5167 46.4545V37.4545H60.761V38.5156H60.8675C60.9414 38.3793 61.0479 38.2216 61.1871 38.0426C61.3263 37.8636 61.5195 37.7074 61.7667 37.5739C62.0138 37.4375 62.3406 37.3693 62.7468 37.3693C63.2752 37.3693 63.7468 37.5028 64.1616 37.7699C64.5763 38.0369 64.9016 38.4219 65.1374 38.9247C65.3761 39.4276 65.4954 40.0327 65.4954 40.7401C65.4954 41.4474 65.3775 42.054 65.1417 42.5597C64.9059 43.0625 64.582 43.4503 64.1701 43.723C63.7582 43.9929 63.288 44.1278 62.7596 44.1278C62.3619 44.1278 62.0366 44.0611 61.7837 43.9276C61.5337 43.794 61.3377 43.6378 61.1957 43.4588C61.0536 43.2798 60.9442 43.1207 60.8675 42.9815H60.7908V46.4545H59.5167ZM60.7653 40.7273C60.7653 41.1875 60.832 41.5909 60.9656 41.9375C61.0991 42.2841 61.2923 42.5554 61.5451 42.7514C61.7979 42.9446 62.1076 43.0412 62.4741 43.0412C62.8548 43.0412 63.1729 42.9403 63.4286 42.7386C63.6843 42.5341 63.8775 42.2571 64.0082 41.9077C64.1417 41.5582 64.2085 41.1648 64.2085 40.7273C64.2085 40.2955 64.1431 39.9077 64.0124 39.5639C63.8846 39.2202 63.6914 38.9489 63.4329 38.75C63.1772 38.5511 62.8576 38.4517 62.4741 38.4517C62.1048 38.4517 61.7923 38.5469 61.5366 38.7372C61.2837 38.9276 61.092 39.1932 60.9613 39.5341C60.8306 39.875 60.7653 40.2727 60.7653 40.7273ZM68.1971 35.2727V44H66.9229V35.2727H68.1971ZM72.7322 44.1321C72.0874 44.1321 71.532 43.9943 71.0661 43.7188C70.603 43.4403 70.245 43.0497 69.9922 42.5469C69.7422 42.0412 69.6172 41.4489 69.6172 40.7699C69.6172 40.0994 69.7422 39.5085 69.9922 38.9972C70.245 38.4858 70.5973 38.0866 71.049 37.7997C71.5036 37.5128 72.0348 37.3693 72.6428 37.3693C73.0121 37.3693 73.37 37.4304 73.7166 37.5526C74.0632 37.6747 74.3743 37.8665 74.6499 38.1278C74.9254 38.3892 75.1428 38.7287 75.3018 39.1463C75.4609 39.5611 75.5405 40.0653 75.5405 40.6591V41.1108H70.3374V40.1562H74.2919C74.2919 39.821 74.2237 39.5241 74.0874 39.2656C73.951 39.0043 73.7592 38.7983 73.5121 38.6477C73.2678 38.4972 72.9808 38.4219 72.6513 38.4219C72.2933 38.4219 71.9808 38.5099 71.7138 38.6861C71.4496 38.8594 71.245 39.0866 71.1001 39.3679C70.9581 39.6463 70.8871 39.9489 70.8871 40.2756V41.0213C70.8871 41.4588 70.9638 41.831 71.1172 42.1378C71.2734 42.4446 71.4908 42.679 71.7692 42.8409C72.0476 43 72.3729 43.0795 72.745 43.0795C72.9865 43.0795 73.2067 43.0455 73.4055 42.9773C73.6044 42.9062 73.7763 42.8011 73.9212 42.6619C74.0661 42.5227 74.1768 42.3509 74.2536 42.1463L75.4595 42.3636C75.3629 42.7187 75.1896 43.0298 74.9396 43.2969C74.6925 43.5611 74.3814 43.767 74.0064 43.9148C73.6342 44.0597 73.2095 44.1321 72.7322 44.1321ZM80.0096 37.4545V38.4773H76.4343V37.4545H80.0096ZM77.3931 35.8864H78.6673V42.0781C78.6673 42.3253 78.7042 42.5114 78.7781 42.6364C78.8519 42.7585 78.9471 42.8423 79.0636 42.8878C79.1829 42.9304 79.3121 42.9517 79.4513 42.9517C79.5536 42.9517 79.6431 42.9446 79.7198 42.9304C79.7965 42.9162 79.8562 42.9048 79.8988 42.8963L80.1289 43.9489C80.055 43.9773 79.9499 44.0057 79.8136 44.0341C79.6772 44.0653 79.5067 44.0824 79.3022 44.0852C78.967 44.0909 78.6545 44.0312 78.3647 43.9062C78.0749 43.7812 77.8406 43.5881 77.6616 43.3267C77.4826 43.0653 77.3931 42.7372 77.3931 42.3423V35.8864ZM84.1697 44.1321C83.5249 44.1321 82.9695 43.9943 82.5036 43.7188C82.0405 43.4403 81.6825 43.0497 81.4297 42.5469C81.1797 42.0412 81.0547 41.4489 81.0547 40.7699C81.0547 40.0994 81.1797 39.5085 81.4297 38.9972C81.6825 38.4858 82.0348 38.0866 82.4865 37.7997C82.9411 37.5128 83.4723 37.3693 84.0803 37.3693C84.4496 37.3693 84.8075 37.4304 85.1541 37.5526C85.5007 37.6747 85.8118 37.8665 86.0874 38.1278C86.3629 38.3892 86.5803 38.7287 86.7393 39.1463C86.8984 39.5611 86.978 40.0653 86.978 40.6591V41.1108H81.7749V40.1562H85.7294C85.7294 39.821 85.6612 39.5241 85.5249 39.2656C85.3885 39.0043 85.1967 38.7983 84.9496 38.6477C84.7053 38.4972 84.4183 38.4219 84.0888 38.4219C83.7308 38.4219 83.4183 38.5099 83.1513 38.6861C82.8871 38.8594 82.6825 39.0866 82.5376 39.3679C82.3956 39.6463 82.3246 39.9489 82.3246 40.2756V41.0213C82.3246 41.4588 82.4013 41.831 82.5547 42.1378C82.7109 42.4446 82.9283 42.679 83.2067 42.8409C83.4851 43 83.8104 43.0795 84.1825 43.0795C84.424 43.0795 84.6442 43.0455 84.843 42.9773C85.0419 42.9062 85.2138 42.8011 85.3587 42.6619C85.5036 42.5227 85.6143 42.3509 85.6911 42.1463L86.897 42.3636C86.8004 42.7187 86.6271 43.0298 86.3771 43.2969C86.13 43.5611 85.8189 43.767 85.4439 43.9148C85.0717 44.0597 84.647 44.1321 84.1697 44.1321ZM90.842 44.1278C90.3136 44.1278 89.842 43.9929 89.4272 43.723C89.0153 43.4503 88.6914 43.0625 88.4556 42.5597C88.2227 42.054 88.1062 41.4474 88.1062 40.7401C88.1062 40.0327 88.2241 39.4276 88.4599 38.9247C88.6985 38.4219 89.0252 38.0369 89.44 37.7699C89.8548 37.5028 90.3249 37.3693 90.8505 37.3693C91.2567 37.3693 91.5835 37.4375 91.8306 37.5739C92.0806 37.7074 92.2738 37.8636 92.4102 38.0426C92.5494 38.2216 92.6573 38.3793 92.734 38.5156H92.8107V35.2727H94.0849V44H92.8406V42.9815H92.734C92.6573 43.1207 92.5465 43.2798 92.4016 43.4588C92.2596 43.6378 92.0636 43.794 91.8136 43.9276C91.5636 44.0611 91.2397 44.1278 90.842 44.1278ZM91.1232 43.0412C91.4897 43.0412 91.7994 42.9446 92.0522 42.7514C92.3079 42.5554 92.5011 42.2841 92.6317 41.9375C92.7653 41.5909 92.832 41.1875 92.832 40.7273C92.832 40.2727 92.7667 39.875 92.636 39.5341C92.5053 39.1932 92.3136 38.9276 92.0607 38.7372C91.8079 38.5469 91.4954 38.4517 91.1232 38.4517C90.7397 38.4517 90.4201 38.5511 90.1644 38.75C89.9087 38.9489 89.7156 39.2202 89.5849 39.5639C89.457 39.9077 89.3931 40.2955 89.3931 40.7273C89.3931 41.1648 89.4585 41.5582 89.5891 41.9077C89.7198 42.2571 89.913 42.5341 90.1687 42.7386C90.4272 42.9403 90.7454 43.0412 91.1232 43.0412Z" fill="#3BB774"/>
</svg>
