<svg width="99" height="38" viewBox="0 0 99 38" fill="none" xmlns="http://www.w3.org/2000/svg">
<rect x="0.5" y="0.5" width="98" height="37" rx="18.5" fill="#FDEEEE"/>
<rect x="0.5" y="0.5" width="98" height="37" rx="18.5" stroke="#F28E8E"/>
<path d="M14.5 23.5L23.5 14.5M14.5 14.5L23.5 23.5" stroke="#EB5757" stroke-width="2" stroke-linecap="round" stroke-linejoin="round"/>
<path d="M41.8182 23H38.8608V14.2727H41.8778C42.7443 14.2727 43.4886 14.4474 44.1108 14.7969C44.7358 15.1435 45.2159 15.642 45.5511 16.2926C45.8864 16.9432 46.054 17.7216 46.054 18.6278C46.054 19.5369 45.8849 20.3182 45.5469 20.9716C45.2116 21.625 44.7273 22.1264 44.0938 22.4759C43.4631 22.8253 42.7045 23 41.8182 23ZM40.4418 21.6321H41.7415C42.3494 21.6321 42.8565 21.5213 43.2628 21.2997C43.669 21.0753 43.9744 20.7415 44.179 20.2983C44.3835 19.8523 44.4858 19.2955 44.4858 18.6278C44.4858 17.9602 44.3835 17.4062 44.179 16.9659C43.9744 16.5227 43.6719 16.1918 43.2713 15.973C42.8736 15.7514 42.3793 15.6406 41.7884 15.6406H40.4418V21.6321ZM50.3857 23.1278C49.7294 23.1278 49.1626 22.9915 48.6854 22.7188C48.2109 22.4432 47.8459 22.054 47.5902 21.5511C47.3345 21.0455 47.2067 20.4503 47.2067 19.7656C47.2067 19.0923 47.3345 18.5014 47.5902 17.9929C47.8487 17.4815 48.2095 17.0838 48.6726 16.7997C49.1357 16.5128 49.6797 16.3693 50.3047 16.3693C50.7081 16.3693 51.0888 16.4347 51.4467 16.5653C51.8075 16.6932 52.1257 16.892 52.4013 17.1619C52.6797 17.4318 52.8984 17.7756 53.0575 18.1932C53.2166 18.608 53.2962 19.1023 53.2962 19.6761V20.1491H47.9311V19.1094H51.8175C51.8146 18.8139 51.7507 18.5511 51.6257 18.321C51.5007 18.0881 51.326 17.9048 51.1016 17.7713C50.88 17.6378 50.6214 17.571 50.326 17.571C50.0107 17.571 49.7337 17.6477 49.495 17.8011C49.2564 17.9517 49.0703 18.1506 48.9368 18.3977C48.8061 18.642 48.7393 18.9105 48.7365 19.2031V20.1108C48.7365 20.4915 48.8061 20.8182 48.9453 21.0909C49.0845 21.3608 49.2791 21.5682 49.5291 21.7131C49.7791 21.8551 50.0717 21.9261 50.407 21.9261C50.6314 21.9261 50.8345 21.8949 51.0163 21.8324C51.1982 21.767 51.3558 21.6719 51.4893 21.5469C51.6229 21.4219 51.7237 21.267 51.7919 21.0824L53.2322 21.2443C53.1413 21.625 52.968 21.9574 52.7124 22.2415C52.4595 22.5227 52.1357 22.7415 51.7408 22.8977C51.3459 23.0511 50.8942 23.1278 50.3857 23.1278ZM57.4563 23.1278C56.8029 23.1278 56.2418 22.9844 55.7731 22.6974C55.3072 22.4105 54.9478 22.0142 54.695 21.5085C54.445 21 54.32 20.4148 54.32 19.7528C54.32 19.0881 54.4478 18.5014 54.7035 17.9929C54.9592 17.4815 55.32 17.0838 55.7859 16.7997C56.2546 16.5128 56.8086 16.3693 57.4478 16.3693C57.979 16.3693 58.4492 16.4673 58.8583 16.6634C59.2702 16.8565 59.5984 17.1307 59.8427 17.4858C60.087 17.8381 60.2262 18.25 60.2603 18.7216H58.7859C58.7262 18.4062 58.5842 18.1435 58.3597 17.9332C58.1381 17.7202 57.8413 17.6136 57.4691 17.6136C57.1538 17.6136 56.8768 17.6989 56.6381 17.8693C56.3995 18.0369 56.2134 18.2784 56.0799 18.5938C55.9492 18.9091 55.8839 19.2869 55.8839 19.7273C55.8839 20.1733 55.9492 20.5568 56.0799 20.8778C56.2106 21.196 56.3938 21.4418 56.6296 21.6151C56.8683 21.7855 57.1481 21.8707 57.4691 21.8707C57.6964 21.8707 57.8995 21.8281 58.0785 21.7429C58.2603 21.6548 58.4123 21.5284 58.5344 21.3636C58.6566 21.1989 58.7404 20.9986 58.7859 20.7628H60.2603C60.2234 21.2259 60.087 21.6364 59.8512 21.9943C59.6154 22.3494 59.2944 22.6278 58.8881 22.8295C58.4819 23.0284 58.0046 23.1278 57.4563 23.1278ZM63.0696 14.2727V23H61.527V14.2727H63.0696ZM64.6559 23V16.4545H66.1985V23H64.6559ZM65.4315 15.5256C65.1871 15.5256 64.9769 15.4446 64.8008 15.2827C64.6246 15.1179 64.5366 14.9205 64.5366 14.6903C64.5366 14.4574 64.6246 14.2599 64.8008 14.098C64.9769 13.9332 65.1871 13.8509 65.4315 13.8509C65.6786 13.8509 65.8888 13.9332 66.0621 14.098C66.2383 14.2599 66.3263 14.4574 66.3263 14.6903C66.3263 14.9205 66.2383 15.1179 66.0621 15.2827C65.8888 15.4446 65.6786 15.5256 65.4315 15.5256ZM69.3274 19.1648V23H67.7848V16.4545H69.2592V17.5668H69.3359C69.4865 17.2003 69.7266 16.9091 70.0561 16.6932C70.3885 16.4773 70.799 16.3693 71.2876 16.3693C71.7393 16.3693 72.1328 16.4659 72.468 16.6591C72.8061 16.8523 73.0675 17.1321 73.2521 17.4986C73.4396 17.8651 73.532 18.3097 73.5291 18.8324V23H71.9865V19.071C71.9865 18.6335 71.8729 18.2912 71.6456 18.044C71.4212 17.7969 71.1101 17.6733 70.7124 17.6733C70.4425 17.6733 70.2024 17.733 69.9922 17.8523C69.7848 17.9687 69.6214 18.1378 69.5021 18.3594C69.3857 18.581 69.3274 18.8494 69.3274 19.1648ZM77.995 23.1278C77.3388 23.1278 76.772 22.9915 76.2947 22.7188C75.8203 22.4432 75.4553 22.054 75.1996 21.5511C74.9439 21.0455 74.8161 20.4503 74.8161 19.7656C74.8161 19.0923 74.9439 18.5014 75.1996 17.9929C75.4581 17.4815 75.8189 17.0838 76.282 16.7997C76.745 16.5128 77.2891 16.3693 77.9141 16.3693C78.3175 16.3693 78.6982 16.4347 79.0561 16.5653C79.4169 16.6932 79.7351 16.892 80.0107 17.1619C80.2891 17.4318 80.5078 17.7756 80.6669 18.1932C80.826 18.608 80.9055 19.1023 80.9055 19.6761V20.1491H75.5405V19.1094H79.4268C79.424 18.8139 79.3601 18.5511 79.2351 18.321C79.1101 18.0881 78.9354 17.9048 78.7109 17.7713C78.4893 17.6378 78.2308 17.571 77.9354 17.571C77.62 17.571 77.343 17.6477 77.1044 17.8011C76.8658 17.9517 76.6797 18.1506 76.5462 18.3977C76.4155 18.642 76.3487 18.9105 76.3459 19.2031V20.1108C76.3459 20.4915 76.4155 20.8182 76.5547 21.0909C76.6939 21.3608 76.8885 21.5682 77.1385 21.7131C77.3885 21.8551 77.6811 21.9261 78.0163 21.9261C78.2408 21.9261 78.4439 21.8949 78.6257 21.8324C78.8075 21.767 78.9652 21.6719 79.0987 21.5469C79.2322 21.4219 79.3331 21.267 79.4013 21.0824L80.8416 21.2443C80.7507 21.625 80.5774 21.9574 80.3217 22.2415C80.0689 22.5227 79.745 22.7415 79.3501 22.8977C78.9553 23.0511 78.5036 23.1278 77.995 23.1278ZM84.6396 23.1151C84.1254 23.1151 83.6651 22.983 83.2589 22.7188C82.8526 22.4545 82.5316 22.071 82.2958 21.5682C82.06 21.0653 81.9421 20.4545 81.9421 19.7358C81.9421 19.0085 82.0614 18.3949 82.3001 17.8949C82.5415 17.392 82.8668 17.0128 83.2759 16.7571C83.685 16.4986 84.141 16.3693 84.6438 16.3693C85.0273 16.3693 85.3427 16.4347 85.5898 16.5653C85.837 16.6932 86.033 16.848 86.1779 17.0298C86.3228 17.2088 86.435 17.3778 86.5146 17.5369H86.5785V14.2727H88.1254V23H86.6083V21.9688H86.5146C86.435 22.1278 86.32 22.2969 86.1694 22.4759C86.0188 22.652 85.82 22.8026 85.5728 22.9276C85.3256 23.0526 85.0146 23.1151 84.6396 23.1151ZM85.07 21.8494C85.3967 21.8494 85.6751 21.7614 85.9052 21.5852C86.1353 21.4062 86.31 21.1577 86.4293 20.8395C86.5487 20.5213 86.6083 20.1506 86.6083 19.7273C86.6083 19.304 86.5487 18.9361 86.4293 18.6236C86.3129 18.3111 86.1396 18.0682 85.9094 17.8949C85.6822 17.7216 85.4023 17.6349 85.07 17.6349C84.7262 17.6349 84.4393 17.7244 84.2092 17.9034C83.979 18.0824 83.8058 18.3295 83.6893 18.6449C83.5728 18.9602 83.5146 19.321 83.5146 19.7273C83.5146 20.1364 83.5728 20.5014 83.6893 20.8224C83.8086 21.1406 83.9833 21.392 84.2134 21.5767C84.4464 21.7585 84.7319 21.8494 85.07 21.8494Z" fill="#EB5757"/>
</svg>
