<svg width="18" height="19" viewBox="0 0 18 19" fill="none" xmlns="http://www.w3.org/2000/svg">
<path d="M15.7498 5.54736C15.7348 5.54736 15.7123 5.54736 15.6898 5.54736C11.7223 5.14986 7.76225 4.99986 3.83975 5.39736L2.30975 5.54736C1.99475 5.57736 1.71725 5.35236 1.68725 5.03736C1.65725 4.72236 1.88225 4.45236 2.18975 4.42236L3.71975 4.27236C7.70975 3.86736 11.7523 4.02486 15.8023 4.42236C16.1098 4.45236 16.3348 4.72986 16.3048 5.03736C16.2823 5.32986 16.0348 5.54736 15.7498 5.54736Z" fill="#EB5757"/>
<path d="M6.37458 4.79C6.34458 4.79 6.31458 4.79 6.27708 4.7825C5.97708 4.73 5.76708 4.4375 5.81958 4.1375L5.98458 3.155C6.10458 2.435 6.26958 1.4375 8.01708 1.4375H9.98208C11.7371 1.4375 11.9021 2.4725 12.0146 3.1625L12.1796 4.1375C12.2321 4.445 12.0221 4.7375 11.7221 4.7825C11.4146 4.835 11.1221 4.625 11.0771 4.325L10.9121 3.35C10.8071 2.6975 10.7846 2.57 9.98958 2.57H8.02458C7.22958 2.57 7.21458 2.675 7.10208 3.3425L6.92958 4.3175C6.88458 4.595 6.64458 4.79 6.37458 4.79Z" fill="#EB5757"/>
<path d="M11.4078 17.5627H6.59279C3.97529 17.5627 3.87029 16.1152 3.78779 14.9452L3.30029 7.39268C3.27779 7.08518 3.51779 6.81518 3.82529 6.79268C4.14029 6.77768 4.40279 7.01018 4.42529 7.31768L4.91279 14.8702C4.99529 16.0102 5.02529 16.4377 6.59279 16.4377H11.4078C12.9828 16.4377 13.0128 16.0102 13.0878 14.8702L13.5753 7.31768C13.5978 7.01018 13.8678 6.77768 14.1753 6.79268C14.4828 6.81518 14.7228 7.07768 14.7003 7.39268L14.2128 14.9452C14.1303 16.1152 14.0253 17.5627 11.4078 17.5627Z" fill="#EB5757"/>
<path d="M10.2446 13.4375H7.74707C7.43957 13.4375 7.18457 13.1825 7.18457 12.875C7.18457 12.5675 7.43957 12.3125 7.74707 12.3125H10.2446C10.5521 12.3125 10.8071 12.5675 10.8071 12.875C10.8071 13.1825 10.5521 13.4375 10.2446 13.4375Z" fill="#EB5757"/>
<path d="M10.875 10.4375H7.125C6.8175 10.4375 6.5625 10.1825 6.5625 9.875C6.5625 9.5675 6.8175 9.3125 7.125 9.3125H10.875C11.1825 9.3125 11.4375 9.5675 11.4375 9.875C11.4375 10.1825 11.1825 10.4375 10.875 10.4375Z" fill="#EB5757"/>
</svg>
