<svg width="14" height="19" viewBox="0 0 14 19" fill="none" xmlns="http://www.w3.org/2000/svg">
<path d="M2.61015 0.5H8.6328L13.7309 5.81896V16.1584C13.7309 17.4518 12.6827 18.5 11.3894 18.5H2.61015C1.3168 18.5 0.268555 17.4517 0.268555 16.1584V2.84159C0.268555 1.54827 1.3168 0.5 2.61015 0.5Z" fill="#0263D1"/>
<path opacity="0.302" fill-rule="evenodd" clip-rule="evenodd" d="M8.625 0.5V5.77527H13.7304L8.625 0.5Z" fill="white"/>
<path d="M2.44238 13.3436V10.3638H3.49793C3.70903 10.3638 3.9056 10.3954 4.08759 10.4536C4.26957 10.5143 4.43457 10.6016 4.58261 10.7181C4.73062 10.8346 4.84711 10.9899 4.93203 11.184C5.01695 11.3781 5.06064 11.6013 5.06064 11.8537C5.06064 12.1061 5.01695 12.3293 4.93203 12.5234C4.84711 12.7175 4.73062 12.8728 4.58261 12.9893C4.4346 13.1058 4.26957 13.1931 4.08759 13.2538C3.9056 13.312 3.70905 13.3436 3.49793 13.3436H2.44238ZM3.18733 12.6957H3.40814C3.52704 12.6957 3.63866 12.6812 3.73814 12.6545C3.84005 12.6253 3.93225 12.5792 4.01961 12.5186C4.10696 12.4579 4.1749 12.3706 4.22343 12.2565C4.2744 12.1449 4.29864 12.009 4.29864 11.8537C4.29864 11.6984 4.27437 11.5625 4.22343 11.4485C4.1749 11.3368 4.10696 11.2495 4.01961 11.1888C3.93225 11.1257 3.84005 11.0821 3.73814 11.0529C3.63866 11.0262 3.52704 11.0117 3.40814 11.0117H3.18733V12.6957ZM6.86839 13.3776C6.41949 13.3776 6.04823 13.232 5.75462 12.9432C5.46101 12.6545 5.31541 12.2905 5.31541 11.8537C5.31541 11.4169 5.46101 11.053 5.75462 10.7642C6.04823 10.4755 6.41949 10.3299 6.86839 10.3299C7.31001 10.3299 7.67642 10.4755 7.97003 10.7642C8.26121 11.053 8.40681 11.417 8.40681 11.8537C8.40681 12.2905 8.26121 12.6545 7.97003 12.9432C7.67642 13.232 7.31001 13.3776 6.86839 13.3776ZM6.29572 12.4822C6.44373 12.6472 6.633 12.7297 6.86352 12.7297C7.09404 12.7297 7.28088 12.6472 7.42891 12.4822C7.57692 12.3147 7.64972 12.1061 7.64972 11.8537C7.64972 11.6013 7.57692 11.3927 7.42891 11.2252C7.2809 11.0602 7.09404 10.9777 6.86352 10.9777C6.633 10.9777 6.44373 11.0602 6.29572 11.2252C6.14771 11.3927 6.07248 11.6013 6.07248 11.8537C6.07248 12.1061 6.14771 12.3147 6.29572 12.4822ZM10.1782 13.3776C9.74382 13.3776 9.38226 13.2417 9.09595 12.9748C8.80718 12.7054 8.66404 12.3317 8.66404 11.8537C8.66404 11.3781 8.80964 11.0044 9.10081 10.7351C9.39442 10.4657 9.75112 10.3298 10.1782 10.3298C10.564 10.3298 10.8794 10.4245 11.1294 10.6162C11.3769 10.8054 11.5201 11.0578 11.5565 11.3732L10.8042 11.5261C10.7727 11.3611 10.6975 11.2277 10.581 11.1282C10.4645 11.0287 10.3286 10.9777 10.1733 10.9777C9.95979 10.9777 9.78265 11.0529 9.63948 11.2058C9.49631 11.3611 9.42351 11.5746 9.42351 11.8537C9.42351 12.1327 9.49631 12.3463 9.63705 12.4991C9.78021 12.6544 9.95736 12.7297 10.1733 12.7297C10.3286 12.7297 10.4621 12.686 10.5713 12.5986C10.6804 12.5113 10.7484 12.3948 10.7775 12.2492L11.5467 12.4239C11.4764 12.7248 11.321 12.9578 11.0784 13.1252C10.8382 13.2926 10.5373 13.3776 10.1782 13.3776Z" fill="white"/>
</svg>
