<svg width="25" height="24" viewBox="0 0 25 24" fill="none" xmlns="http://www.w3.org/2000/svg">
<path d="M15.0299 9.46998L9.96992 14.53C9.31992 13.88 8.91992 12.99 8.91992 12C8.91992 10.02 10.5199 8.41998 12.4999 8.41998C13.4899 8.41998 14.3799 8.81998 15.0299 9.46998Z" stroke="#111111" stroke-opacity="0.5" stroke-width="1.5" stroke-linecap="round" stroke-linejoin="round"/>
<path d="M18.3198 5.76998C16.5698 4.44998 14.5698 3.72998 12.4998 3.72998C8.96984 3.72998 5.67984 5.80998 3.38984 9.40998C2.48984 10.82 2.48984 13.19 3.38984 14.6C4.17984 15.84 5.09984 16.91 6.09984 17.77" stroke="#111111" stroke-opacity="0.5" stroke-width="1.5" stroke-linecap="round" stroke-linejoin="round"/>
<path d="M8.91992 19.53C10.0599 20.01 11.2699 20.27 12.4999 20.27C16.0299 20.27 19.3199 18.19 21.6099 14.59C22.5099 13.18 22.5099 10.81 21.6099 9.39999C21.2799 8.87999 20.9199 8.38999 20.5499 7.92999" stroke="#111111" stroke-opacity="0.5" stroke-width="1.5" stroke-linecap="round" stroke-linejoin="round"/>
<path d="M16.0104 12.7C15.7504 14.11 14.6004 15.26 13.1904 15.52" stroke="#111111" stroke-opacity="0.5" stroke-width="1.5" stroke-linecap="round" stroke-linejoin="round"/>
<path d="M9.97 14.53L2.5 22" stroke="#111111" stroke-opacity="0.5" stroke-width="1.5" stroke-linecap="round" stroke-linejoin="round"/>
<path d="M22.5003 2L15.0303 9.47" stroke="#111111" stroke-opacity="0.5" stroke-width="1.5" stroke-linecap="round" stroke-linejoin="round"/>
</svg>
