<svg width="20" height="20" viewBox="0 0 20 20" fill="none" xmlns="http://www.w3.org/2000/svg">
<path fill-rule="evenodd" clip-rule="evenodd" d="M1.875 10C1.875 5.51269 5.51269 1.875 10 1.875C14.4873 1.875 18.125 5.51269 18.125 10C18.125 14.4873 14.4873 18.125 10 18.125C5.51269 18.125 1.875 14.4873 1.875 10ZM11.3564 6.73606C10.6157 6.08798 9.38466 6.08798 8.64399 6.73606C8.38421 6.96337 7.98936 6.93704 7.76206 6.67727C7.53476 6.4175 7.56108 6.02264 7.82086 5.79534C9.03281 4.73489 10.9676 4.73489 12.1795 5.79534C13.4404 6.89862 13.4404 8.72638 12.1795 9.82966C11.9656 10.0168 11.7301 10.1701 11.4817 10.2903C10.9181 10.563 10.6252 10.9351 10.6252 11.25V11.875C10.6252 12.2202 10.3454 12.5 10.0002 12.5C9.65501 12.5 9.37519 12.2202 9.37519 11.875V11.25C9.37519 10.1841 10.2579 9.49387 10.9372 9.16514C11.0894 9.09148 11.2304 8.99916 11.3564 8.88894C12.0481 8.28367 12.0481 7.34133 11.3564 6.73606ZM10 15C10.3452 15 10.625 14.7202 10.625 14.375C10.625 14.0298 10.3452 13.75 10 13.75C9.65482 13.75 9.375 14.0298 9.375 14.375C9.375 14.7202 9.65482 15 10 15Z" fill="#F8F9FC"/>
</svg>
