<svg width="64" height="64" viewBox="0 0 64 64" fill="none" xmlns="http://www.w3.org/2000/svg">
<path d="M24.0005 47.3333C22.9072 47.3333 22.0005 46.4266 22.0005 45.3333V34.1599L20.0805 36.0799C19.3072 36.8533 18.0272 36.8533 17.2538 36.0799C16.4805 35.3066 16.4805 34.0266 17.2538 33.2533L22.5872 27.9199C23.1472 27.3599 24.0272 27.1733 24.7738 27.4933C25.5205 27.7866 26.0005 28.5333 26.0005 29.3333V45.3333C26.0005 46.4266 25.0938 47.3333 24.0005 47.3333Z" fill="#40444C"/>
<path d="M29.3325 36.6666C28.8259 36.6666 28.3192 36.48 27.9192 36.08L22.5859 30.7466C21.8125 29.9733 21.8125 28.6933 22.5859 27.92C23.3592 27.1466 24.6392 27.1466 25.4125 27.92L30.7459 33.2533C31.5192 34.0266 31.5192 35.3066 30.7459 36.08C30.3459 36.48 29.8392 36.6666 29.3325 36.6666Z" fill="#40444C"/>
<path d="M40.0006 60.6667H24.0007C9.52065 60.6667 3.33398 54.48 3.33398 40V24C3.33398 9.52004 9.52065 3.33337 24.0007 3.33337H37.334C38.4273 3.33337 39.334 4.24004 39.334 5.33337C39.334 6.42671 38.4273 7.33337 37.334 7.33337H24.0007C11.7073 7.33337 7.33398 11.7067 7.33398 24V40C7.33398 52.2934 11.7073 56.6667 24.0007 56.6667H40.0006C52.294 56.6667 56.6673 52.2934 56.6673 40V26.6667C56.6673 25.5734 57.574 24.6667 58.6673 24.6667C59.7606 24.6667 60.6673 25.5734 60.6673 26.6667V40C60.6673 54.48 54.4806 60.6667 40.0006 60.6667Z" fill="#40444C"/>
<path d="M58.6673 28.6666H48.0007C38.8807 28.6666 35.334 25.1199 35.334 15.9999V5.33328C35.334 4.53328 35.814 3.78662 36.5607 3.49328C37.3073 3.17328 38.1607 3.35995 38.7473 3.91995L60.0807 25.2533C60.6407 25.8133 60.8273 26.6933 60.5073 27.4399C60.1873 28.1866 59.4673 28.6666 58.6673 28.6666ZM39.334 10.1599V15.9999C39.334 22.8799 41.1207 24.6666 48.0007 24.6666H53.8407L39.334 10.1599Z" fill="#40444C"/>
</svg>
