<svg width="16" height="16" viewBox="0 0 16 16" fill="none" xmlns="http://www.w3.org/2000/svg">
<path fill-rule="evenodd" clip-rule="evenodd" d="M1.59961 3.80001C1.59961 3.46864 1.86824 3.20001 2.19961 3.20001H13.7996C14.131 3.20001 14.3996 3.46864 14.3996 3.80001C14.3996 4.13138 14.131 4.40001 13.7996 4.40001H2.19961C1.86824 4.40001 1.59961 4.13138 1.59961 3.80001ZM7.19961 12.2C7.19961 11.8686 7.46824 11.6 7.79961 11.6H13.7996C14.131 11.6 14.3996 11.8686 14.3996 12.2C14.3996 12.5314 14.131 12.8 13.7996 12.8H7.79961C7.46824 12.8 7.19961 12.5314 7.19961 12.2Z" fill="#40444C" stroke="#40444C" stroke-width="0.5" stroke-linecap="round" stroke-linejoin="round"/>
<path fill-rule="evenodd" clip-rule="evenodd" d="M1.59961 8.00002C1.59961 7.66865 1.86824 7.40002 2.19961 7.40002H13.7996C14.131 7.40002 14.3996 7.66865 14.3996 8.00002C14.3996 8.3314 14.131 8.60002 13.7996 8.60002H2.19961C1.86824 8.60002 1.59961 8.3314 1.59961 8.00002Z" fill="#40444C" stroke="#40444C" stroke-width="0.5" stroke-linecap="round" stroke-linejoin="round"/>
</svg>
