<svg width="141" height="80" viewBox="0 0 141 80" fill="none" xmlns="http://www.w3.org/2000/svg">
<circle cx="17.5" cy="40" r="5.5" fill="#007AFF" stroke="#B0D6FF" stroke-width="4"/>
<path d="M34.2756 35.2727V44H32.9588V35.2727H34.2756ZM37.3651 40.1136V44H36.0909V37.4545H37.3139V38.5199H37.3949C37.5455 38.1733 37.7813 37.8949 38.1023 37.6847C38.4261 37.4744 38.8338 37.3693 39.3253 37.3693C39.7713 37.3693 40.1619 37.4631 40.4972 37.6506C40.8324 37.8352 41.0923 38.1108 41.277 38.4773C41.4616 38.8437 41.554 39.2969 41.554 39.8366V44H40.2798V39.9901C40.2798 39.5156 40.1563 39.1449 39.9091 38.8778C39.6619 38.608 39.3224 38.473 38.8906 38.473C38.5952 38.473 38.3324 38.5369 38.1023 38.6648C37.875 38.7926 37.6946 38.9801 37.5611 39.2273C37.4304 39.4716 37.3651 39.767 37.3651 40.1136ZM46.5408 44V35.2727H49.6516C50.3306 35.2727 50.8931 35.3963 51.3391 35.6435C51.7852 35.8906 52.119 36.2287 52.3406 36.6577C52.5621 37.0838 52.6729 37.5639 52.6729 38.098C52.6729 38.6349 52.5607 39.1179 52.3363 39.5469C52.1147 39.973 51.7795 40.3111 51.3306 40.5611C50.8846 40.8082 50.3235 40.9318 49.6474 40.9318H47.5082V39.8153H49.5281C49.957 39.8153 50.305 39.7415 50.5721 39.5938C50.8391 39.4432 51.0352 39.2386 51.1602 38.9801C51.2852 38.7216 51.3477 38.4276 51.3477 38.098C51.3477 37.7685 51.2852 37.4759 51.1602 37.2202C51.0352 36.9645 50.8377 36.7642 50.5678 36.6193C50.3008 36.4744 49.9485 36.402 49.511 36.402H47.8576V44H46.5408ZM54.1143 44V37.4545H55.3459V38.4943H55.4141C55.5334 38.142 55.7436 37.8651 56.0447 37.6634C56.3487 37.4588 56.6925 37.3565 57.076 37.3565C57.1555 37.3565 57.2493 37.3594 57.3572 37.3651C57.468 37.3707 57.5547 37.3778 57.6172 37.3864V38.6051C57.5661 38.5909 57.4751 38.5753 57.3445 38.5582C57.2138 38.5384 57.0831 38.5284 56.9524 38.5284C56.6513 38.5284 56.3828 38.5923 56.147 38.7202C55.9141 38.8452 55.7294 39.0199 55.593 39.2443C55.4567 39.4659 55.3885 39.7187 55.3885 40.0028V44H54.1143ZM61.2425 44.1321C60.6289 44.1321 60.0934 43.9915 59.636 43.7102C59.1786 43.429 58.8235 43.0355 58.5707 42.5298C58.3178 42.0241 58.1914 41.4332 58.1914 40.7571C58.1914 40.0781 58.3178 39.4844 58.5707 38.9759C58.8235 38.4673 59.1786 38.0724 59.636 37.7912C60.0934 37.5099 60.6289 37.3693 61.2425 37.3693C61.8562 37.3693 62.3917 37.5099 62.8491 37.7912C63.3065 38.0724 63.6616 38.4673 63.9144 38.9759C64.1673 39.4844 64.2937 40.0781 64.2937 40.7571C64.2937 41.4332 64.1673 42.0241 63.9144 42.5298C63.6616 43.0355 63.3065 43.429 62.8491 43.7102C62.3917 43.9915 61.8562 44.1321 61.2425 44.1321ZM61.2468 43.0625C61.6445 43.0625 61.9741 42.9574 62.2354 42.7472C62.4968 42.5369 62.69 42.2571 62.815 41.9077C62.9428 41.5582 63.0067 41.1733 63.0067 40.7528C63.0067 40.3352 62.9428 39.9517 62.815 39.6023C62.69 39.25 62.4968 38.9673 62.2354 38.7543C61.9741 38.5412 61.6445 38.4347 61.2468 38.4347C60.8462 38.4347 60.5138 38.5412 60.2496 38.7543C59.9883 38.9673 59.7937 39.25 59.6658 39.6023C59.5408 39.9517 59.4783 40.3352 59.4783 40.7528C59.4783 41.1733 59.5408 41.5582 59.6658 41.9077C59.7937 42.2571 59.9883 42.5369 60.2496 42.7472C60.5138 42.9574 60.8462 43.0625 61.2468 43.0625ZM68.4602 46.5909C67.9403 46.5909 67.4929 46.5227 67.1179 46.3864C66.7457 46.25 66.4418 46.0696 66.206 45.8452C65.9702 45.6207 65.794 45.375 65.6776 45.108L66.7727 44.6562C66.8494 44.7812 66.9517 44.9134 67.0795 45.0526C67.2102 45.1946 67.3864 45.3153 67.608 45.4148C67.8324 45.5142 68.1207 45.5639 68.473 45.5639C68.956 45.5639 69.3551 45.446 69.6705 45.2102C69.9858 44.9773 70.1435 44.6051 70.1435 44.0938V42.8068H70.0625C69.9858 42.946 69.875 43.1009 69.7301 43.2713C69.5881 43.4418 69.392 43.5895 69.142 43.7145C68.892 43.8395 68.5668 43.902 68.1662 43.902C67.6491 43.902 67.1832 43.7812 66.7685 43.5398C66.3565 43.2955 66.0298 42.9361 65.7884 42.4616C65.5497 41.9844 65.4304 41.3977 65.4304 40.7017C65.4304 40.0057 65.5483 39.4091 65.7841 38.9119C66.0227 38.4148 66.3494 38.0341 66.7642 37.7699C67.179 37.5028 67.6491 37.3693 68.1747 37.3693C68.581 37.3693 68.9091 37.4375 69.1591 37.5739C69.4091 37.7074 69.6037 37.8636 69.7429 38.0426C69.8849 38.2216 69.9943 38.3793 70.071 38.5156H70.1648V37.4545H71.4134V44.1449C71.4134 44.7074 71.2827 45.169 71.0213 45.5298C70.7599 45.8906 70.4063 46.1577 69.9602 46.331C69.517 46.5043 69.017 46.5909 68.4602 46.5909ZM68.4474 42.8452C68.8139 42.8452 69.1236 42.7599 69.3764 42.5895C69.6321 42.4162 69.8253 42.169 69.956 41.848C70.0895 41.5241 70.1562 41.1364 70.1562 40.6847C70.1562 40.2443 70.0909 39.8565 69.9602 39.5213C69.8295 39.1861 69.6378 38.9247 69.3849 38.7372C69.1321 38.5469 68.8196 38.4517 68.4474 38.4517C68.0639 38.4517 67.7443 38.5511 67.4886 38.75C67.233 38.946 67.0398 39.2131 66.9091 39.5511C66.7813 39.8892 66.7173 40.267 66.7173 40.6847C66.7173 41.1136 66.7827 41.4901 66.9134 41.8139C67.044 42.1378 67.2372 42.3906 67.4929 42.5724C67.7514 42.7543 68.0696 42.8452 68.4474 42.8452ZM73.1222 44V37.4545H74.3537V38.4943H74.4219C74.5412 38.142 74.7514 37.8651 75.0526 37.6634C75.3565 37.4588 75.7003 37.3565 76.0838 37.3565C76.1634 37.3565 76.2571 37.3594 76.3651 37.3651C76.4759 37.3707 76.5625 37.3778 76.625 37.3864V38.6051C76.5739 38.5909 76.483 38.5753 76.3523 38.5582C76.2216 38.5384 76.0909 38.5284 75.9602 38.5284C75.6591 38.5284 75.3906 38.5923 75.1548 38.7202C74.9219 38.8452 74.7372 39.0199 74.6009 39.2443C74.4645 39.4659 74.3963 39.7187 74.3963 40.0028V44H73.1222ZM80.3143 44.1321C79.6694 44.1321 79.114 43.9943 78.6481 43.7188C78.185 43.4403 77.8271 43.0497 77.5742 42.5469C77.3242 42.0412 77.1992 41.4489 77.1992 40.7699C77.1992 40.0994 77.3242 39.5085 77.5742 38.9972C77.8271 38.4858 78.1793 38.0866 78.631 37.7997C79.0856 37.5128 79.6168 37.3693 80.2248 37.3693C80.5941 37.3693 80.9521 37.4304 81.2987 37.5526C81.6452 37.6747 81.9563 37.8665 82.2319 38.1278C82.5075 38.3892 82.7248 38.7287 82.8839 39.1463C83.043 39.5611 83.1225 40.0653 83.1225 40.6591V41.1108H77.9194V40.1562H81.8739C81.8739 39.821 81.8058 39.5241 81.6694 39.2656C81.533 39.0043 81.3413 38.7983 81.0941 38.6477C80.8498 38.4972 80.5629 38.4219 80.2333 38.4219C79.8754 38.4219 79.5629 38.5099 79.2958 38.6861C79.0316 38.8594 78.8271 39.0866 78.6822 39.3679C78.5401 39.6463 78.4691 39.9489 78.4691 40.2756V41.0213C78.4691 41.4588 78.5458 41.831 78.6992 42.1378C78.8555 42.4446 79.0728 42.679 79.3512 42.8409C79.6296 43 79.9549 43.0795 80.3271 43.0795C80.5685 43.0795 80.7887 43.0455 80.9876 42.9773C81.1864 42.9062 81.3583 42.8011 81.5032 42.6619C81.6481 42.5227 81.7589 42.3509 81.8356 42.1463L83.0415 42.3636C82.945 42.7187 82.7717 43.0298 82.5217 43.2969C82.2745 43.5611 81.9634 43.767 81.5884 43.9148C81.2163 44.0597 80.7915 44.1321 80.3143 44.1321ZM89.4411 39.0526L88.2862 39.2571C88.2379 39.1094 88.1612 38.9687 88.0561 38.8352C87.9538 38.7017 87.8146 38.5923 87.6385 38.5071C87.4624 38.4219 87.2422 38.3793 86.978 38.3793C86.6172 38.3793 86.3161 38.4602 86.0746 38.6222C85.8331 38.7812 85.7124 38.9872 85.7124 39.2401C85.7124 39.4588 85.7933 39.6349 85.9553 39.7685C86.1172 39.902 86.3786 40.0114 86.7393 40.0966L87.7791 40.3352C88.3814 40.4744 88.8303 40.6889 89.1257 40.9787C89.4212 41.2685 89.5689 41.6449 89.5689 42.108C89.5689 42.5 89.4553 42.8494 89.228 43.1562C89.0036 43.4602 88.6896 43.6989 88.2862 43.8722C87.8857 44.0455 87.4212 44.1321 86.8928 44.1321C86.1598 44.1321 85.5618 43.9759 85.0987 43.6634C84.6357 43.348 84.3516 42.9006 84.2464 42.321L85.478 42.1335C85.5547 42.4545 85.7124 42.6974 85.951 42.8622C86.1896 43.0241 86.5007 43.1051 86.8842 43.1051C87.3018 43.1051 87.6357 43.0185 87.8857 42.8452C88.1357 42.669 88.2607 42.4545 88.2607 42.2017C88.2607 41.9972 88.1839 41.8253 88.0305 41.6861C87.88 41.5469 87.6484 41.4418 87.3359 41.3707L86.228 41.1278C85.6172 40.9886 85.1655 40.767 84.8729 40.4631C84.5831 40.1591 84.4382 39.7741 84.4382 39.3082C84.4382 38.9219 84.5462 38.5838 84.7621 38.294C84.978 38.0043 85.2763 37.7784 85.657 37.6165C86.0376 37.4517 86.4737 37.3693 86.9652 37.3693C87.6726 37.3693 88.2294 37.5227 88.6357 37.8295C89.0419 38.1335 89.3104 38.5412 89.4411 39.0526ZM95.8746 39.0526L94.7198 39.2571C94.6715 39.1094 94.5948 38.9687 94.4897 38.8352C94.3874 38.7017 94.2482 38.5923 94.0721 38.5071C93.896 38.4219 93.6758 38.3793 93.4116 38.3793C93.0508 38.3793 92.7496 38.4602 92.5082 38.6222C92.2667 38.7812 92.146 38.9872 92.146 39.2401C92.146 39.4588 92.2269 39.6349 92.3888 39.7685C92.5508 39.902 92.8121 40.0114 93.1729 40.0966L94.2127 40.3352C94.815 40.4744 95.2638 40.6889 95.5593 40.9787C95.8548 41.2685 96.0025 41.6449 96.0025 42.108C96.0025 42.5 95.8888 42.8494 95.6616 43.1562C95.4371 43.4602 95.1232 43.6989 94.7198 43.8722C94.3192 44.0455 93.8548 44.1321 93.3263 44.1321C92.5934 44.1321 91.9954 43.9759 91.5323 43.6634C91.0692 43.348 90.7852 42.9006 90.68 42.321L91.9116 42.1335C91.9883 42.4545 92.146 42.6974 92.3846 42.8622C92.6232 43.0241 92.9343 43.1051 93.3178 43.1051C93.7354 43.1051 94.0692 43.0185 94.3192 42.8452C94.5692 42.669 94.6942 42.4545 94.6942 42.2017C94.6942 41.9972 94.6175 41.8253 94.4641 41.6861C94.3136 41.5469 94.082 41.4418 93.7695 41.3707L92.6616 41.1278C92.0508 40.9886 91.5991 40.767 91.3065 40.4631C91.0167 40.1591 90.8718 39.7741 90.8718 39.3082C90.8718 38.9219 90.9798 38.5838 91.1957 38.294C91.4116 38.0043 91.7099 37.7784 92.0906 37.6165C92.4712 37.4517 92.9073 37.3693 93.3988 37.3693C94.1062 37.3693 94.663 37.5227 95.0692 37.8295C95.4755 38.1335 95.744 38.5412 95.8746 39.0526Z" fill="#007AFF"/>
</svg>
