<svg width="141" height="80" viewBox="0 0 141 80" fill="none" xmlns="http://www.w3.org/2000/svg">
<circle cx="17.5" cy="40" r="5.5" fill="#EB5757" stroke="#F9CBCB" stroke-width="4"/>
<path d="M40.0028 35.2727V44H38.7926L34.3565 37.5994H34.2756V44H32.9588V35.2727H34.1776L38.6179 41.6818H38.6989V35.2727H40.0028ZM44.5785 44.1321C43.9648 44.1321 43.4293 43.9915 42.9719 43.7102C42.5146 43.429 42.1594 43.0355 41.9066 42.5298C41.6538 42.0241 41.5273 41.4332 41.5273 40.7571C41.5273 40.0781 41.6538 39.4844 41.9066 38.9759C42.1594 38.4673 42.5146 38.0724 42.9719 37.7912C43.4293 37.5099 43.9648 37.3693 44.5785 37.3693C45.1921 37.3693 45.7276 37.5099 46.185 37.7912C46.6424 38.0724 46.9975 38.4673 47.2504 38.9759C47.5032 39.4844 47.6296 40.0781 47.6296 40.7571C47.6296 41.4332 47.5032 42.0241 47.2504 42.5298C46.9975 43.0355 46.6424 43.429 46.185 43.7102C45.7276 43.9915 45.1921 44.1321 44.5785 44.1321ZM44.5827 43.0625C44.9805 43.0625 45.31 42.9574 45.5714 42.7472C45.8327 42.5369 46.0259 42.2571 46.1509 41.9077C46.2788 41.5582 46.3427 41.1733 46.3427 40.7528C46.3427 40.3352 46.2788 39.9517 46.1509 39.6023C46.0259 39.25 45.8327 38.9673 45.5714 38.7543C45.31 38.5412 44.9805 38.4347 44.5827 38.4347C44.1822 38.4347 43.8498 38.5412 43.5856 38.7543C43.3242 38.9673 43.1296 39.25 43.0018 39.6023C42.8768 39.9517 42.8143 40.3352 42.8143 40.7528C42.8143 41.1733 42.8768 41.5582 43.0018 41.9077C43.1296 42.2571 43.3242 42.5369 43.5856 42.7472C43.8498 42.9574 44.1822 43.0625 44.5827 43.0625ZM52.1072 37.4545V38.4773H48.532V37.4545H52.1072ZM49.4908 35.8864H50.7649V42.0781C50.7649 42.3253 50.8018 42.5114 50.8757 42.6364C50.9496 42.7585 51.0447 42.8423 51.1612 42.8878C51.2805 42.9304 51.4098 42.9517 51.549 42.9517C51.6513 42.9517 51.7408 42.9446 51.8175 42.9304C51.8942 42.9162 51.9538 42.9048 51.9964 42.8963L52.2266 43.9489C52.1527 43.9773 52.0476 44.0057 51.9112 44.0341C51.7749 44.0653 51.6044 44.0824 51.3999 44.0852C51.0646 44.0909 50.7521 44.0312 50.4624 43.9062C50.1726 43.7812 49.9382 43.5881 49.7592 43.3267C49.5803 43.0653 49.4908 42.7372 49.4908 42.3423V35.8864ZM61.5547 37.5653C61.5092 37.1619 61.3217 36.8494 60.9922 36.6278C60.6626 36.4034 60.2479 36.2912 59.7479 36.2912C59.3899 36.2912 59.0803 36.348 58.8189 36.4616C58.5575 36.5724 58.3544 36.7259 58.2095 36.9219C58.0675 37.1151 57.9964 37.3352 57.9964 37.5824C57.9964 37.7898 58.0447 37.9687 58.1413 38.1193C58.2408 38.2699 58.37 38.3963 58.5291 38.4986C58.6911 38.598 58.8643 38.6818 59.049 38.75C59.2337 38.8153 59.4112 38.8693 59.5817 38.9119L60.4339 39.1335C60.7124 39.2017 60.9979 39.294 61.2905 39.4105C61.5831 39.527 61.8544 39.6804 62.1044 39.8707C62.3544 40.0611 62.5561 40.2969 62.7095 40.5781C62.8658 40.8594 62.9439 41.196 62.9439 41.5881C62.9439 42.0824 62.8161 42.5213 62.5604 42.9048C62.3075 43.2884 61.9396 43.5909 61.4567 43.8125C60.9766 44.0341 60.3956 44.1449 59.7138 44.1449C59.0604 44.1449 58.495 44.0412 58.0178 43.8338C57.5405 43.6264 57.1669 43.3324 56.897 42.9517C56.6271 42.5682 56.478 42.1136 56.4496 41.5881H57.7706C57.7962 41.9034 57.8984 42.1662 58.0774 42.3764C58.2592 42.5838 58.4908 42.7386 58.772 42.8409C59.0561 42.9403 59.3672 42.9901 59.7053 42.9901C60.0774 42.9901 60.4084 42.9318 60.6982 42.8153C60.9908 42.696 61.2209 42.5312 61.3885 42.321C61.5561 42.108 61.6399 41.8594 61.6399 41.5753C61.6399 41.3168 61.5661 41.1051 61.4183 40.9403C61.2734 40.7756 61.076 40.6392 60.826 40.5312C60.5788 40.4233 60.299 40.3281 59.9865 40.2457L58.9553 39.9645C58.2564 39.7741 57.7024 39.4943 57.2933 39.125C56.8871 38.7557 56.6839 38.267 56.6839 37.6591C56.6839 37.1562 56.8203 36.7173 57.093 36.3423C57.3658 35.9673 57.7351 35.6761 58.201 35.4688C58.6669 35.2585 59.1925 35.1534 59.7777 35.1534C60.3686 35.1534 60.8899 35.2571 61.3416 35.4645C61.7962 35.6719 62.1541 35.9574 62.4155 36.321C62.6768 36.6818 62.8132 37.0966 62.8246 37.5653H61.5547ZM67.4705 37.4545V38.4773H63.8952V37.4545H67.4705ZM64.854 35.8864H66.1282V42.0781C66.1282 42.3253 66.1651 42.5114 66.239 42.6364C66.3129 42.7585 66.408 42.8423 66.5245 42.8878C66.6438 42.9304 66.7731 42.9517 66.9123 42.9517C67.0146 42.9517 67.104 42.9446 67.1808 42.9304C67.2575 42.9162 67.3171 42.9048 67.3597 42.8963L67.5898 43.9489C67.516 43.9773 67.4109 44.0057 67.2745 44.0341C67.1381 44.0653 66.9677 44.0824 66.7631 44.0852C66.4279 44.0909 66.1154 44.0312 65.8256 43.9062C65.5359 43.7812 65.3015 43.5881 65.1225 43.3267C64.9435 43.0653 64.854 42.7372 64.854 42.3423V35.8864ZM70.7848 44.1449C70.37 44.1449 69.995 44.0682 69.6598 43.9148C69.3246 43.7585 69.0589 43.5327 68.8629 43.2372C68.6697 42.9418 68.5732 42.5795 68.5732 42.1506C68.5732 41.7812 68.6442 41.4773 68.7862 41.2386C68.9283 41 69.12 40.8111 69.3615 40.6719C69.603 40.5327 69.8729 40.4276 70.1712 40.3565C70.4695 40.2855 70.7734 40.2315 71.0831 40.1946C71.4751 40.1491 71.7933 40.1122 72.0376 40.0838C72.282 40.0526 72.4595 40.0028 72.5703 39.9347C72.6811 39.8665 72.7365 39.7557 72.7365 39.6023V39.5724C72.7365 39.2003 72.6314 38.9119 72.4212 38.7074C72.2138 38.5028 71.9041 38.4006 71.4922 38.4006C71.0632 38.4006 70.7251 38.4957 70.478 38.6861C70.2337 38.8736 70.0646 39.0824 69.9709 39.3125L68.7734 39.0398C68.9155 38.642 69.1229 38.321 69.3956 38.0767C69.6712 37.8295 69.9879 37.6506 70.3459 37.5398C70.7038 37.4261 71.0803 37.3693 71.4751 37.3693C71.7365 37.3693 72.0135 37.4006 72.3061 37.4631C72.6016 37.5227 72.8771 37.6335 73.1328 37.7955C73.3913 37.9574 73.603 38.1889 73.7678 38.4901C73.9325 38.7884 74.0149 39.1761 74.0149 39.6534V44H72.7706V43.1051H72.7195C72.6371 43.2699 72.5135 43.4318 72.3487 43.5909C72.1839 43.75 71.9723 43.8821 71.7138 43.9872C71.4553 44.0923 71.1456 44.1449 70.7848 44.1449ZM71.0618 43.1222C71.4141 43.1222 71.7152 43.0526 71.9652 42.9134C72.218 42.7741 72.4098 42.5923 72.5405 42.3679C72.674 42.1406 72.7408 41.8977 72.7408 41.6392V40.7955C72.6953 40.8409 72.6072 40.8835 72.4766 40.9233C72.3487 40.9602 72.2024 40.9929 72.0376 41.0213C71.8729 41.0469 71.7124 41.071 71.5561 41.0938C71.3999 41.1136 71.2692 41.1307 71.1641 41.1449C70.9169 41.1761 70.6911 41.2287 70.4865 41.3026C70.2848 41.3764 70.1229 41.483 70.0007 41.6222C69.8814 41.7585 69.8217 41.9403 69.8217 42.1676C69.8217 42.483 69.9382 42.7216 70.1712 42.8835C70.4041 43.0426 70.701 43.1222 71.0618 43.1222ZM75.712 44V37.4545H76.9435V38.4943H77.0117C77.131 38.142 77.3413 37.8651 77.6424 37.6634C77.9464 37.4588 78.2901 37.3565 78.6737 37.3565C78.7532 37.3565 78.8469 37.3594 78.9549 37.3651C79.0657 37.3707 79.1523 37.3778 79.2148 37.3864V38.6051C79.1637 38.5909 79.0728 38.5753 78.9421 38.5582C78.8114 38.5384 78.6808 38.5284 78.5501 38.5284C78.2489 38.5284 77.9805 38.5923 77.7447 38.7202C77.5117 38.8452 77.3271 39.0199 77.1907 39.2443C77.0543 39.4659 76.9862 39.7187 76.9862 40.0028V44H75.712ZM83.7596 37.4545V38.4773H80.1843V37.4545H83.7596ZM81.1431 35.8864H82.4173V42.0781C82.4173 42.3253 82.4542 42.5114 82.5281 42.6364C82.6019 42.7585 82.6971 42.8423 82.8136 42.8878C82.9329 42.9304 83.0621 42.9517 83.2013 42.9517C83.3036 42.9517 83.3931 42.9446 83.4698 42.9304C83.5465 42.9162 83.6062 42.9048 83.6488 42.8963L83.8789 43.9489C83.805 43.9773 83.6999 44.0057 83.5636 44.0341C83.4272 44.0653 83.2567 44.0824 83.0522 44.0852C82.717 44.0909 82.4045 44.0312 82.1147 43.9062C81.8249 43.7812 81.5906 43.5881 81.4116 43.3267C81.2326 43.0653 81.1431 42.7372 81.1431 42.3423V35.8864ZM87.9197 44.1321C87.2749 44.1321 86.7195 43.9943 86.2536 43.7188C85.7905 43.4403 85.4325 43.0497 85.1797 42.5469C84.9297 42.0412 84.8047 41.4489 84.8047 40.7699C84.8047 40.0994 84.9297 39.5085 85.1797 38.9972C85.4325 38.4858 85.7848 38.0866 86.2365 37.7997C86.6911 37.5128 87.2223 37.3693 87.8303 37.3693C88.1996 37.3693 88.5575 37.4304 88.9041 37.5526C89.2507 37.6747 89.5618 37.8665 89.8374 38.1278C90.1129 38.3892 90.3303 38.7287 90.4893 39.1463C90.6484 39.5611 90.728 40.0653 90.728 40.6591V41.1108H85.5249V40.1562H89.4794C89.4794 39.821 89.4112 39.5241 89.2749 39.2656C89.1385 39.0043 88.9467 38.7983 88.6996 38.6477C88.4553 38.4972 88.1683 38.4219 87.8388 38.4219C87.4808 38.4219 87.1683 38.5099 86.9013 38.6861C86.6371 38.8594 86.4325 39.0866 86.2876 39.3679C86.1456 39.6463 86.0746 39.9489 86.0746 40.2756V41.0213C86.0746 41.4588 86.1513 41.831 86.3047 42.1378C86.4609 42.4446 86.6783 42.679 86.9567 42.8409C87.2351 43 87.5604 43.0795 87.9325 43.0795C88.174 43.0795 88.3942 43.0455 88.593 42.9773C88.7919 42.9062 88.9638 42.8011 89.1087 42.6619C89.2536 42.5227 89.3643 42.3509 89.4411 42.1463L90.647 42.3636C90.5504 42.7187 90.3771 43.0298 90.1271 43.2969C89.88 43.5611 89.5689 43.767 89.1939 43.9148C88.8217 44.0597 88.397 44.1321 87.9197 44.1321ZM94.592 44.1278C94.0636 44.1278 93.592 43.9929 93.1772 43.723C92.7653 43.4503 92.4414 43.0625 92.2056 42.5597C91.9727 42.054 91.8562 41.4474 91.8562 40.7401C91.8562 40.0327 91.9741 39.4276 92.2099 38.9247C92.4485 38.4219 92.7752 38.0369 93.19 37.7699C93.6048 37.5028 94.0749 37.3693 94.6005 37.3693C95.0067 37.3693 95.3335 37.4375 95.5806 37.5739C95.8306 37.7074 96.0238 37.8636 96.1602 38.0426C96.2994 38.2216 96.4073 38.3793 96.484 38.5156H96.5607V35.2727H97.8349V44H96.5906V42.9815H96.484C96.4073 43.1207 96.2965 43.2798 96.1516 43.4588C96.0096 43.6378 95.8136 43.794 95.5636 43.9276C95.3136 44.0611 94.9897 44.1278 94.592 44.1278ZM94.8732 43.0412C95.2397 43.0412 95.5494 42.9446 95.8022 42.7514C96.0579 42.5554 96.2511 42.2841 96.3817 41.9375C96.5153 41.5909 96.582 41.1875 96.582 40.7273C96.582 40.2727 96.5167 39.875 96.386 39.5341C96.2553 39.1932 96.0636 38.9276 95.8107 38.7372C95.5579 38.5469 95.2454 38.4517 94.8732 38.4517C94.4897 38.4517 94.1701 38.5511 93.9144 38.75C93.6587 38.9489 93.4656 39.2202 93.3349 39.5639C93.207 39.9077 93.1431 40.2955 93.1431 40.7273C93.1431 41.1648 93.2085 41.5582 93.3391 41.9077C93.4698 42.2571 93.663 42.5341 93.9187 42.7386C94.1772 42.9403 94.4954 43.0412 94.8732 43.0412Z" fill="#EB5757"/>
</svg>
