<svg width="40" height="40" viewBox="0 0 40 40" fill="none" xmlns="http://www.w3.org/2000/svg">
<path fill-rule="evenodd" clip-rule="evenodd" d="M10.2503 0H23.6237L34.958 11.8141V34.7926C34.958 37.6712 32.6292 40 29.7606 40H10.2503C7.3718 40 5.04297 37.6712 5.04297 34.7926V5.20738C5.04292 2.32883 7.37175 0 10.2503 0Z" fill="#E5252A"/>
<path opacity="0.302" fill-rule="evenodd" clip-rule="evenodd" d="M23.6133 0V11.7241H34.9576L23.6133 0Z" fill="white"/>
<path d="M10.8301 29.8452V22.5388H13.9385C14.7082 22.5388 15.3179 22.7487 15.7776 23.1785C16.2374 23.5983 16.4673 24.168 16.4673 24.8777C16.4673 25.5873 16.2374 26.157 15.7776 26.5768C15.3179 27.0066 14.7082 27.2165 13.9385 27.2165H12.6991V29.8452H10.8301ZM12.6991 25.6273H13.7286C14.0085 25.6273 14.2284 25.5673 14.3783 25.4274C14.5282 25.2975 14.6082 25.1176 14.6082 24.8777C14.6082 24.6378 14.5283 24.4579 14.3783 24.328C14.2284 24.188 14.0085 24.1281 13.7286 24.1281H12.6991V25.6273ZM17.2369 29.8452V22.5388H19.8256C20.3353 22.5388 20.8151 22.6088 21.2648 22.7587C21.7146 22.9086 22.1244 23.1186 22.4842 23.4084C22.8441 23.6882 23.1339 24.0681 23.3438 24.5478C23.5437 25.0276 23.6537 25.5773 23.6537 26.197C23.6537 26.8067 23.5437 27.3564 23.3438 27.8362C23.1339 28.3159 22.8441 28.6957 22.4842 28.9756C22.1244 29.2654 21.7146 29.4753 21.2648 29.6253C20.8151 29.7752 20.3353 29.8452 19.8256 29.8452H17.2369ZM19.066 28.256H19.6057C19.8955 28.256 20.1654 28.226 20.4153 28.156C20.6551 28.0861 20.885 27.9761 21.1049 27.8262C21.3148 27.6763 21.4847 27.4664 21.6047 27.1865C21.7246 26.9067 21.7846 26.5768 21.7846 26.197C21.7846 25.8072 21.7246 25.4774 21.6047 25.1975C21.4847 24.9177 21.3148 24.7078 21.1049 24.5578C20.885 24.4079 20.6552 24.298 20.4153 24.228C20.1654 24.1581 19.8955 24.128 19.6057 24.128H19.066V28.256ZM24.5932 29.8452V22.5388H29.7906V24.128H26.4623V25.2974H29.1209V26.8767H26.4623V29.8452H24.5932Z" fill="white"/>
</svg>
