<svg width="96" height="38" viewBox="0 0 96 38" fill="none" xmlns="http://www.w3.org/2000/svg">
<rect x="0.5" y="0.5" width="95" height="37" rx="18.5" fill="#FFF6E6"/>
<rect x="0.5" y="0.5" width="95" height="37" rx="18.5" stroke="#FFD78A"/>
<path fill-rule="evenodd" clip-rule="evenodd" d="M19 13C15.6863 13 13 15.6863 13 19C13 22.3137 15.6863 25 19 25C22.3137 25 25 22.3137 25 19C25 15.6863 22.3137 13 19 13ZM11.5 19C11.5 14.8579 14.8579 11.5 19 11.5C23.1421 11.5 26.5 14.8579 26.5 19C26.5 23.1421 23.1421 26.5 19 26.5C14.8579 26.5 11.5 23.1421 11.5 19ZM19 16C19.4142 16 19.75 16.3358 19.75 16.75V19.5625C19.75 19.9767 19.4142 20.3125 19 20.3125C18.5858 20.3125 18.25 19.9767 18.25 19.5625V16.75C18.25 16.3358 18.5858 16 19 16ZM18.25 21.8125C18.25 21.3983 18.5858 21.0625 19 21.0625H19.0056C19.4198 21.0625 19.7556 21.3983 19.7556 21.8125V21.8181C19.7556 22.2323 19.4198 22.5681 19.0056 22.5681H19C18.5858 22.5681 18.25 22.2323 18.25 21.8181V21.8125Z" fill="#FFA800"/>
<path d="M38.8608 23V14.2727H42.1335C42.804 14.2727 43.3665 14.3977 43.821 14.6477C44.2784 14.8977 44.6236 15.2415 44.8565 15.679C45.0923 16.1136 45.2102 16.608 45.2102 17.1619C45.2102 17.7216 45.0923 18.2187 44.8565 18.6534C44.6207 19.0881 44.2727 19.4304 43.8125 19.6804C43.3523 19.9276 42.7855 20.0511 42.1122 20.0511H39.9432V18.7514H41.8991C42.2912 18.7514 42.6122 18.6832 42.8622 18.5469C43.1122 18.4105 43.2969 18.223 43.4162 17.9844C43.5384 17.7457 43.5994 17.4716 43.5994 17.1619C43.5994 16.8523 43.5384 16.5795 43.4162 16.3438C43.2969 16.108 43.1108 15.9247 42.858 15.794C42.608 15.6605 42.2855 15.5938 41.8906 15.5938H40.4418V23H38.8608ZM49.3192 23.1278C48.663 23.1278 48.0962 22.9915 47.619 22.7188C47.1445 22.4432 46.7795 22.054 46.5238 21.5511C46.2681 21.0455 46.1403 20.4503 46.1403 19.7656C46.1403 19.0923 46.2681 18.5014 46.5238 17.9929C46.7823 17.4815 47.1431 17.0838 47.6062 16.7997C48.0692 16.5128 48.6133 16.3693 49.2383 16.3693C49.6417 16.3693 50.0224 16.4347 50.3803 16.5653C50.7411 16.6932 51.0593 16.892 51.3349 17.1619C51.6133 17.4318 51.832 17.7756 51.9911 18.1932C52.1502 18.608 52.2298 19.1023 52.2298 19.6761V20.1491H46.8647V19.1094H50.7511C50.7482 18.8139 50.6843 18.5511 50.5593 18.321C50.4343 18.0881 50.2596 17.9048 50.0352 17.7713C49.8136 17.6378 49.555 17.571 49.2596 17.571C48.9442 17.571 48.6673 17.6477 48.4286 17.8011C48.19 17.9517 48.0039 18.1506 47.8704 18.3977C47.7397 18.642 47.6729 18.9105 47.6701 19.2031V20.1108C47.6701 20.4915 47.7397 20.8182 47.8789 21.0909C48.0181 21.3608 48.2127 21.5682 48.4627 21.7131C48.7127 21.8551 49.0053 21.9261 49.3406 21.9261C49.565 21.9261 49.7681 21.8949 49.9499 21.8324C50.1317 21.767 50.2894 21.6719 50.4229 21.5469C50.5565 21.4219 50.6573 21.267 50.7255 21.0824L52.1658 21.2443C52.0749 21.625 51.9016 21.9574 51.646 22.2415C51.3931 22.5227 51.0692 22.7415 50.6744 22.8977C50.2795 23.0511 49.8278 23.1278 49.3192 23.1278ZM55.0774 19.1648V23H53.5348V16.4545H55.0092V17.5668H55.0859C55.2365 17.2003 55.4766 16.9091 55.8061 16.6932C56.1385 16.4773 56.549 16.3693 57.0376 16.3693C57.4893 16.3693 57.8828 16.4659 58.218 16.6591C58.5561 16.8523 58.8175 17.1321 59.0021 17.4986C59.1896 17.8651 59.282 18.3097 59.2791 18.8324V23H57.7365V19.071C57.7365 18.6335 57.6229 18.2912 57.3956 18.044C57.1712 17.7969 56.8601 17.6733 56.4624 17.6733C56.1925 17.6733 55.9524 17.733 55.7422 17.8523C55.5348 17.9687 55.3714 18.1378 55.2521 18.3594C55.1357 18.581 55.0774 18.8494 55.0774 19.1648ZM63.2763 23.1151C62.7621 23.1151 62.3018 22.983 61.8956 22.7188C61.4893 22.4545 61.1683 22.071 60.9325 21.5682C60.6967 21.0653 60.5788 20.4545 60.5788 19.7358C60.5788 19.0085 60.6982 18.3949 60.9368 17.8949C61.1783 17.392 61.5036 17.0128 61.9126 16.7571C62.3217 16.4986 62.7777 16.3693 63.2805 16.3693C63.6641 16.3693 63.9794 16.4347 64.2266 16.5653C64.4737 16.6932 64.6697 16.848 64.8146 17.0298C64.9595 17.2088 65.0717 17.3778 65.1513 17.5369H65.2152V14.2727H66.7621V23H65.245V21.9688H65.1513C65.0717 22.1278 64.9567 22.2969 64.8061 22.4759C64.6555 22.652 64.4567 22.8026 64.2095 22.9276C63.9624 23.0526 63.6513 23.1151 63.2763 23.1151ZM63.7067 21.8494C64.0334 21.8494 64.3118 21.7614 64.5419 21.5852C64.772 21.4062 64.9467 21.1577 65.0661 20.8395C65.1854 20.5213 65.245 20.1506 65.245 19.7273C65.245 19.304 65.1854 18.9361 65.0661 18.6236C64.9496 18.3111 64.7763 18.0682 64.5462 17.8949C64.3189 17.7216 64.0391 17.6349 63.7067 17.6349C63.3629 17.6349 63.076 17.7244 62.8459 17.9034C62.6158 18.0824 62.4425 18.3295 62.326 18.6449C62.2095 18.9602 62.1513 19.321 62.1513 19.7273C62.1513 20.1364 62.2095 20.5014 62.326 20.8224C62.4453 21.1406 62.62 21.392 62.8501 21.5767C63.0831 21.7585 63.3686 21.8494 63.7067 21.8494ZM68.4059 23V16.4545H69.9485V23H68.4059ZM69.1815 15.5256C68.9371 15.5256 68.7269 15.4446 68.5508 15.2827C68.3746 15.1179 68.2866 14.9205 68.2866 14.6903C68.2866 14.4574 68.3746 14.2599 68.5508 14.098C68.7269 13.9332 68.9371 13.8509 69.1815 13.8509C69.4286 13.8509 69.6388 13.9332 69.8121 14.098C69.9883 14.2599 70.0763 14.4574 70.0763 14.6903C70.0763 14.9205 69.9883 15.1179 69.8121 15.2827C69.6388 15.4446 69.4286 15.5256 69.1815 15.5256ZM73.0774 19.1648V23H71.5348V16.4545H73.0092V17.5668H73.0859C73.2365 17.2003 73.4766 16.9091 73.8061 16.6932C74.1385 16.4773 74.549 16.3693 75.0376 16.3693C75.4893 16.3693 75.8828 16.4659 76.218 16.6591C76.5561 16.8523 76.8175 17.1321 77.0021 17.4986C77.1896 17.8651 77.282 18.3097 77.2791 18.8324V23H75.7365V19.071C75.7365 18.6335 75.6229 18.2912 75.3956 18.044C75.1712 17.7969 74.8601 17.6733 74.4624 17.6733C74.1925 17.6733 73.9524 17.733 73.7422 17.8523C73.5348 17.9687 73.3714 18.1378 73.2521 18.3594C73.1357 18.581 73.0774 18.8494 73.0774 19.1648ZM81.6939 25.5909C81.1399 25.5909 80.6641 25.5156 80.2663 25.3651C79.8686 25.2173 79.549 25.0185 79.3075 24.7685C79.0661 24.5185 78.8984 24.2415 78.8047 23.9375L80.1939 23.6009C80.2564 23.7287 80.3473 23.8551 80.4666 23.9801C80.5859 24.108 80.7464 24.2131 80.9482 24.2955C81.1527 24.3807 81.4098 24.4233 81.7195 24.4233C82.157 24.4233 82.5192 24.3168 82.8061 24.1037C83.093 23.8935 83.2365 23.5469 83.2365 23.0639V21.8239H83.1598C83.0803 21.983 82.9638 22.1463 82.8104 22.3139C82.6598 22.4815 82.4595 22.6222 82.2095 22.7358C81.9624 22.8494 81.6513 22.9062 81.2763 22.9062C80.7734 22.9062 80.3175 22.7884 79.9084 22.5526C79.5021 22.3139 79.1783 21.9588 78.9368 21.4872C78.6982 21.0128 78.5788 20.419 78.5788 19.706C78.5788 18.9872 78.6982 18.3807 78.9368 17.8864C79.1783 17.3892 79.5036 17.0128 79.9126 16.7571C80.3217 16.4986 80.7777 16.3693 81.2805 16.3693C81.6641 16.3693 81.9794 16.4347 82.2266 16.5653C82.4766 16.6932 82.6754 16.848 82.8232 17.0298C82.9709 17.2088 83.0831 17.3778 83.1598 17.5369H83.245V16.4545H84.7663V23.1065C84.7663 23.6662 84.6328 24.1293 84.3658 24.4957C84.0987 24.8622 83.7337 25.1364 83.2706 25.3182C82.8075 25.5 82.282 25.5909 81.6939 25.5909ZM81.7067 21.696C82.0334 21.696 82.3118 21.6165 82.5419 21.4574C82.772 21.2983 82.9467 21.0696 83.0661 20.7713C83.1854 20.473 83.245 20.1151 83.245 19.6974C83.245 19.2855 83.1854 18.9247 83.0661 18.6151C82.9496 18.3054 82.7763 18.0653 82.5462 17.8949C82.3189 17.7216 82.0391 17.6349 81.7067 17.6349C81.3629 17.6349 81.076 17.7244 80.8459 17.9034C80.6158 18.0824 80.4425 18.3281 80.326 18.6406C80.2095 18.9503 80.1513 19.3026 80.1513 19.6974C80.1513 20.098 80.2095 20.4489 80.326 20.75C80.4453 21.0483 80.62 21.2812 80.8501 21.4489C81.0831 21.6136 81.3686 21.696 81.7067 21.696Z" fill="#FFB933"/>
</svg>
