<svg width="30" height="31" viewBox="0 0 30 31" fill="none" xmlns="http://www.w3.org/2000/svg">
<rect x="1" y="1.5" width="28" height="28" rx="14" fill="#E2E6EE"/>
<rect x="1" y="1.5" width="28" height="28" rx="14" stroke="#E2E6EE" stroke-width="2"/>
<path d="M15.75 10.25C15.75 9.83579 15.4142 9.5 15 9.5C14.5858 9.5 14.25 9.83579 14.25 10.25V14.75H9.75C9.33579 14.75 9 15.0858 9 15.5C9 15.9142 9.33579 16.25 9.75 16.25L14.25 16.25V20.75C14.25 21.1642 14.5858 21.5 15 21.5C15.4142 21.5 15.75 21.1642 15.75 20.75V16.25L20.25 16.25C20.6642 16.25 21 15.9142 21 15.5C21 15.0858 20.6642 14.75 20.25 14.75H15.75V10.25Z" fill="#40444C" stroke="#40444C" stroke-width="0.5" stroke-linecap="round"/>
</svg>
