<svg width="25" height="24" viewBox="0 0 25 24" fill="none" xmlns="http://www.w3.org/2000/svg">
<path d="M21.4997 6.72998C21.4797 6.72998 21.4497 6.72998 21.4197 6.72998C16.1297 6.19998 10.8497 5.99998 5.61967 6.52998L3.57967 6.72998C3.15967 6.76998 2.78967 6.46998 2.74967 6.04998C2.70967 5.62998 3.00967 5.26998 3.41967 5.22998L5.45967 5.02998C10.7797 4.48998 16.1697 4.69998 21.5697 5.22998C21.9797 5.26998 22.2797 5.63998 22.2397 6.04998C22.2097 6.43998 21.8797 6.72998 21.4997 6.72998Z" fill="#EB5757"/>
<path d="M9.00074 5.72C8.96074 5.72 8.92074 5.72 8.87074 5.71C8.47074 5.64 8.19074 5.25 8.26074 4.85L8.48074 3.54C8.64074 2.58 8.86074 1.25 11.1907 1.25H13.8107C16.1507 1.25 16.3707 2.63 16.5207 3.55L16.7407 4.85C16.8107 5.26 16.5307 5.65 16.1307 5.71C15.7207 5.78 15.3307 5.5 15.2707 5.1L15.0507 3.8C14.9107 2.93 14.8807 2.76 13.8207 2.76H11.2007C10.1407 2.76 10.1207 2.9 9.97074 3.79L9.74074 5.09C9.68074 5.46 9.36074 5.72 9.00074 5.72Z" fill="#EB5757"/>
<path d="M15.7104 22.75H9.29039C5.80039 22.75 5.66039 20.82 5.55039 19.26L4.90039 9.18995C4.87039 8.77995 5.19039 8.41995 5.60039 8.38995C6.02039 8.36995 6.37039 8.67995 6.40039 9.08995L7.05039 19.16C7.16039 20.68 7.20039 21.25 9.29039 21.25H15.7104C17.8104 21.25 17.8504 20.68 17.9504 19.16L18.6004 9.08995C18.6304 8.67995 18.9904 8.36995 19.4004 8.38995C19.8104 8.41995 20.1304 8.76995 20.1004 9.18995L19.4504 19.26C19.3404 20.82 19.2004 22.75 15.7104 22.75Z" fill="#EB5757"/>
<path d="M14.1601 17.25H10.8301C10.4201 17.25 10.0801 16.91 10.0801 16.5C10.0801 16.09 10.4201 15.75 10.8301 15.75H14.1601C14.5701 15.75 14.9101 16.09 14.9101 16.5C14.9101 16.91 14.5701 17.25 14.1601 17.25Z" fill="#EB5757"/>
<path d="M15 13.25H10C9.59 13.25 9.25 12.91 9.25 12.5C9.25 12.09 9.59 11.75 10 11.75H15C15.41 11.75 15.75 12.09 15.75 12.5C15.75 12.91 15.41 13.25 15 13.25Z" fill="#EB5757"/>
</svg>
