<svg width="87" height="86" viewBox="0 0 87 86" fill="none" xmlns="http://www.w3.org/2000/svg">
<path fill-rule="evenodd" clip-rule="evenodd" d="M31.327 13.6122C34.2803 10.2158 38.6386 8.0625 43.5 8.0625C48.3612 8.0625 52.7193 10.2156 55.6726 13.6117C60.1629 13.298 64.7678 14.8571 68.2057 18.295C71.6436 21.7329 73.2027 26.3378 72.889 30.8281C76.2847 33.7814 78.4375 38.1392 78.4375 43C78.4375 47.8617 76.2839 52.2203 72.8871 55.1736C73.2002 59.6631 71.641 64.2671 68.2037 67.7044C64.7664 71.1417 60.1625 72.7009 55.6729 72.3879C52.7196 75.7842 48.3614 77.9375 43.5 77.9375C38.6389 77.9375 34.2808 75.7844 31.3275 72.3884C26.8372 72.7022 22.2322 71.1431 18.7943 67.7052C15.3563 64.2672 13.7972 59.6622 14.111 55.1719C10.7153 52.2187 8.5625 47.8609 8.5625 43C8.5625 38.1389 10.7155 33.7809 14.1115 30.8276C13.7981 26.3377 15.3572 21.7332 18.7948 18.2956C22.2325 14.8579 26.837 13.2988 31.327 13.6122ZM56.4369 36.4996C57.2996 35.2918 57.0199 33.6133 55.8121 32.7506C54.6043 31.8879 52.9258 32.1676 52.0631 33.3754L40.4696 49.6064L34.6503 43.7872C33.6008 42.7376 31.8992 42.7376 30.8497 43.7872C29.8001 44.8367 29.8001 46.5383 30.8497 47.5878L38.9122 55.6504C39.4708 56.209 40.2469 56.4935 41.0342 56.4283C41.8215 56.3632 42.5402 55.9549 42.9994 55.3121L56.4369 36.4996Z" fill="#41C980"/>
</svg>
