<svg width="16" height="16" viewBox="0 0 16 16" fill="none" xmlns="http://www.w3.org/2000/svg">
<path d="M6.10573 7.24665C6.03906 7.23998 5.95906 7.23998 5.88573 7.24665C4.29906 7.19331 3.03906 5.89331 3.03906 4.29331C3.03906 2.65998 4.35906 1.33331 5.99906 1.33331C7.6324 1.33331 8.95906 2.65998 8.95906 4.29331C8.95239 5.89331 7.6924 7.19331 6.10573 7.24665Z" stroke="#40444C" stroke-width="1.5" stroke-linecap="round" stroke-linejoin="round"/>
<path d="M10.9402 2.66669C12.2335 2.66669 13.2735 3.71335 13.2735 5.00002C13.2735 6.26002 12.2735 7.28669 11.0268 7.33335C10.9735 7.32669 10.9135 7.32669 10.8535 7.33335" stroke="#40444C" stroke-width="1.5" stroke-linecap="round" stroke-linejoin="round"/>
<path d="M2.7725 9.70669C1.15917 10.7867 1.15917 12.5467 2.7725 13.62C4.60583 14.8467 7.6125 14.8467 9.44583 13.62C11.0592 12.54 11.0592 10.78 9.44583 9.70669C7.61917 8.48669 4.6125 8.48669 2.7725 9.70669Z" stroke="#40444C" stroke-width="1.5" stroke-linecap="round" stroke-linejoin="round"/>
<path d="M12.2266 13.3333C12.7066 13.2333 13.1599 13.04 13.5332 12.7533C14.5732 11.9733 14.5732 10.6866 13.5332 9.90665C13.1666 9.62665 12.7199 9.43998 12.2466 9.33331" stroke="#292D32" stroke-width="1.5" stroke-linecap="round" stroke-linejoin="round"/>
</svg>
