<svg width="16" height="16" viewBox="0 0 16 16" fill="none" xmlns="http://www.w3.org/2000/svg">
<path d="M10.6673 1.33331H5.33398C2.66732 1.33331 1.33398 2.66665 1.33398 5.33331V14C1.33398 14.3666 1.63398 14.6666 2.00065 14.6666H10.6673C13.334 14.6666 14.6673 13.3333 14.6673 10.6666V5.33331C14.6673 2.66665 13.334 1.33331 10.6673 1.33331Z" stroke="#40444C" stroke-width="1.5" stroke-linecap="round" stroke-linejoin="round"/>
<path d="M8.60588 5.22665L5.14588 8.68664C5.01254 8.81998 4.88588 9.07998 4.85921 9.26665L4.67255 10.5866C4.60588 11.0666 4.93921 11.4 5.41921 11.3333L6.7392 11.1466C6.92587 11.12 7.18588 10.9933 7.31922 10.86L10.7792 7.39998C11.3726 6.80664 11.6592 6.11331 10.7792 5.23331C9.89922 4.34665 9.20588 4.62665 8.60588 5.22665Z" stroke="#40444C" stroke-width="1.5" stroke-miterlimit="10" stroke-linecap="round" stroke-linejoin="round"/>
<path d="M8.11328 5.71997C8.40661 6.76664 9.22661 7.5933 10.2799 7.88664" stroke="#40444C" stroke-width="1.5" stroke-miterlimit="10" stroke-linecap="round" stroke-linejoin="round"/>
</svg>
