<svg width="16" height="16" viewBox="0 0 16 16" fill="none" xmlns="http://www.w3.org/2000/svg">
<path d="M4.33398 14.6667V10" stroke="#40444C" stroke-width="1.5" stroke-miterlimit="10" stroke-linecap="round" stroke-linejoin="round"/>
<path d="M4.33398 3.33337V1.33337" stroke="#40444C" stroke-width="1.5" stroke-miterlimit="10" stroke-linecap="round" stroke-linejoin="round"/>
<path d="M11.666 14.6666V12.6666" stroke="#40444C" stroke-width="1.5" stroke-miterlimit="10" stroke-linecap="round" stroke-linejoin="round"/>
<path d="M11.666 6.00004V1.33337" stroke="#292D32" stroke-width="1.5" stroke-miterlimit="10" stroke-linecap="round" stroke-linejoin="round"/>
<path d="M6.33398 4.66671V8.66671C6.33398 9.40004 6.00065 10 5.00065 10H3.66732C2.66732 10 2.33398 9.40004 2.33398 8.66671V4.66671C2.33398 3.93337 2.66732 3.33337 3.66732 3.33337H5.00065C6.00065 3.33337 6.33398 3.93337 6.33398 4.66671Z" stroke="#292D32" stroke-width="1.5" stroke-miterlimit="10" stroke-linecap="round" stroke-linejoin="round"/>
<path d="M13.666 7.33333V11.3333C13.666 12.0667 13.3327 12.6667 12.3327 12.6667H10.9993C9.99935 12.6667 9.66602 12.0667 9.66602 11.3333V7.33333C9.66602 6.6 9.99935 6 10.9993 6H12.3327C13.3327 6 13.666 6.6 13.666 7.33333Z" stroke="#292D32" stroke-width="1.5" stroke-miterlimit="10" stroke-linecap="round" stroke-linejoin="round"/>
</svg>
